<svg id="Layer_1" data-name="Layer 1" xmlns="http://www.w3.org/2000/svg" viewBox="0 0 2817.6 1002.44"><title>vector file</title><path d="M489,481.73V208.27q-32.94-16.26-68.66-31a48.76,48.76,0,0,0-36.33,0q-35.73,14.72-68.66,31V481.75q43.16,1,86.38,1Q445.39,482.75,489,481.73Z" fill="#e85d04"/><path d="M533.37,231.56V480.47q59.86-2.07,119.6-6h0V775.21a3.14,3.14,0,0,1-3,3.16h-98.8v.28a16.22,16.22,0,0,0-11,7.31c-9.43,14.9-21.79,30-36.49,46.27l-28.65,31.23c-.35.34-.65.68-1.07,1.14-.79.9-1.59,1.78-2.34,2.65-10.88,12.12-32.56,34.52-62.76,64.8l-7.17,7.16c-20-19.52-62.57-61.65-79.25-78.19a23.6,23.6,0,0,0-16.63-6.85h0c-21.06,0-31.71,25.38-16.92,40.38C326.42,932.63,378,984,385.21,990.87l8.69,8.28a11.92,11.92,0,0,0,16.64-.18l24.58-24.44a7.55,7.55,0,0,0,.61-.64l7.2-7.16,1.14-1.14c21.37-21.49,49.49-50,63.78-66L539.57,865l.41-.49c10-11.14,20.28-23,29.68-35.66q2.24-3,4.41-6.12h76a47.58,47.58,0,0,0,47.21-47.49V471.3c8.34-.63,16.64-1.28,25-2,14.8-1.25,27.67-9.11,33.65-20.5,5.54-10.58,4.43-22.71-2.9-32.48C699.57,345.15,626,283.29,533.37,231.56Z" fill="#e85d04"/><path d="M402.21,144.09a13.85,13.85,0,0,0,13.86-13.86V13.86a13.86,13.86,0,0,0-27.72,0V130.23A13.86,13.86,0,0,0,402.21,144.09Z" fill="#e85d04"/><path d="M224.7,173.91a13.86,13.86,0,1,0,25-12L199.18,57a13.86,13.86,0,1,0-25,12Z" fill="#e85d04"/><path d="M115.68,282.08a13.86,13.86,0,0,0-2.2-19.48L22.5,190A13.86,13.86,0,1,0,5.22,211.71l91,72.56A13.86,13.86,0,0,0,115.68,282.08Z" fill="#e85d04"/><path d="M801.4,192.24a13.86,13.86,0,0,0-19.47-2.2l-91,72.56a13.86,13.86,0,0,0,17.28,21.67l91-72.56A13.86,13.86,0,0,0,801.4,192.24Z" fill="#e85d04"/><path d="M561.23,180.39a13.85,13.85,0,0,0,18.49-6.48l50.5-104.85a13.86,13.86,0,1,0-25-12l-50.5,104.85A13.86,13.86,0,0,0,561.23,180.39Z" fill="#e85d04"/><path d="M284.94,610c1.23-1.37,3.31-3.58,4.62-4.88l.42-.42c1.82-1.86,3.79-3.71,5.79-5.53l.42-.38A159.79,159.79,0,0,1,355.73,565a157.77,157.77,0,0,1,42.9-6.93h.57c1,0,2,0,3,0a158.14,158.14,0,0,1,78.75,21l.87.5a159.31,159.31,0,0,1,79,137.18c0,1.75,0,3.48-.13,5.19-.67,13.48,9.64,24.94,23.14,24.94h1.19a24.09,24.09,0,0,0,24.17-22.71q.18-3.67.18-7.42A208,208,0,0,0,508.11,538.63l-8.75-4.89a206.54,206.54,0,0,0-97.13-24.22c-1.4,0-2.81,0-3.87,0h-.49a205.69,205.69,0,0,0-56.43,9.06,208.38,208.38,0,0,0-77.39,43.77l-.53.49c-2.84,2.58-5.61,5.19-8.22,7.81l-.45.49c-.95,1-1.86,1.86-2.77,2.84h-.46l-9.85,11.67c-1.59,2-3.14,3.91-4.74,6L233.09,597a16.41,16.41,0,0,0-1.36,2.08c-.12.16-.23.35-.34.5L230,601.61l-.23.34-.72,1.1c-1.06,1.63-2.12,3.3-3.15,5l-.41.68c-1.14,1.78-2.28,3.64-3.41,5.76l-.27.45c0,.12-.11.19-.15.31l-.61,1.06c-.11.19-.22.41-.34.6a28.51,28.51,0,0,0-3.6,6.83c-.23.41-.41.83-.64,1.28l-.5,1c-1.06,2.12-2.08,4.24-3,6.44l-.3.68c-.27.65-.53,1.29-.83,1.94a27.59,27.59,0,0,0-2.62,6.36c-.3.76-.6,1.56-.87,2.32l-.27.68c-.75,2-1.51,4.05-2.08,5.87l-.61,1.74c-.3,1-.56,1.86-.87,2.81a32,32,0,0,0-1.36,4.51l-.08.26c-.34,1.22-.68,2.47-1,3.68l-.08.34c-.38,1.25-.72,2.54-1,3.91l-.8,3.37-.19.83c-.22,1.06-.45,2.09-.64,3.11a38.09,38.09,0,0,0-.8,4l-.11.6-.57,3.41c-.07.38-.15.76-.19,1.14-.15.83-.26,1.67-.38,2.5l-.19,1.21c-.19,1.18-.3,2.35-.45,3.53l-.08.64c-.15,1.1-.26,2.2-.38,3.3-.1.61-.16,1.17-.21,1.68h0V697c-.05.58-.07,1.06-.09,1.43l-.05.77-.12,1.48c-.07,1-.15,2-.23,3,0,.34,0,.72-.07,1.1,0,1.06-.11,2.12-.15,3.18v.64c-.08,1.14-.12,2.32-.12,3.45l0,1c0,1.22,0,2.43,0,3.64,0,1,0,1.9,0,2.85v.53c0,.3,0,.64,0,.94l0,1.22v0l0,.91v.27l.42,7c0,.42.07.8.11,1.21l.08,1c.07.68.15,1.36.19,1.78s.11,1,.18,1.55v0c0,.53.12,1.1.19,1.67,0,.42.12.83.19,1.36s.16,1.18.23,1.67l.49,3.37a5.74,5.74,0,0,1,.16.88,169.82,169.82,0,0,0,8,29.93c.38,1,.8,2.07,1.19,3.11h-52a3.16,3.16,0,0,1-3.15-3.15V474.48q59.69,4,119.63,6V231.57C178.49,283.3,104.84,345.15,51.35,416.32c-7.34,9.77-8.41,21.9-2.87,32.48,6,11.39,18.85,19.25,33.62,20.5,8.34.72,16.67,1.37,25,2V774.91a47.52,47.52,0,0,0,47.39,47.46l113.07.3a11.32,11.32,0,0,0,9.16-18c-15.42-20.8-27.33-43.17-31.51-67.9,0-.22-.08-.45-.11-.72l-1-8c0-.31-.07-.81-.1-1.11l-.3-4.78V722l-.08-2.84a2,2,0,0,0,0-.49l0-5.69c0-.79,0-1.55.08-2.31l0-1.17c0-.65.08-1.29.12-2l.22-3.26c.08-.87.16-1.78.19-2.35v0c0-.45.12-.87.16-1.33.07-.91.19-1.78.3-2.65l.07-.72c.08-.72.19-1.44.27-2.16l.61-4c.15-.83.26-1.63.41-2.46l.34-2,.08-.34s0-.08,0-.08l.26-1.29.65-3,.07-.42c.19-.75.38-1.55.57-2.31l.34-1.51c.19-.61.34-1.22.61-2.13s.45-1.66.76-2.73c.15-.49.26-1,.41-1.51.08-.23.12-.42.19-.65l.31-.83c.26-.91.57-1.82.83-2.69l.57-1.67c.38-1.17.79-2.35,1.21-3.41.15-.45.34-.83.46-1.29.3-.75.6-1.55.91-2.31l.15-.34c.15-.38.3-.79.45-1.25s.49-1.06.68-1.52l1.71-3.92c.54-1.22,1.1-2.43,1.71-3.62l1.74-3.45c.11-.26.34-.72.64-1.28s.46-.84.57-1.07l1.48-2.69c.26-.41.49-.83.64-1.13.65-1.14,1.29-2.28,2-3.38l.72-1.17c.65-1,1.29-2.09,2-3.11l1.33-1.33,1-2.12c.19-.26.38-.53.57-.83.34-.46.72-1,1.14-1.71l2.54-3.33c.91-1.21,1.82-2.39,2.77-3.56l1-1.22.87-1.1,1.1-1.28c.61-.72,1.25-1.48,1.93-2.2Z" fill="#e85d04"/><circle cx="402.21" cy="716.51" r="97.49" transform="translate(-388.85 494.27) rotate(-45)" fill="#e85d04"/><polygon points="990.58 333.36 990.58 271 915.28 271 915.28 375.7 990.58 333.36"/><polygon points="915.28 425.2 915.28 758.19 990.58 758.19 990.58 382.87 915.28 425.2"/><path d="M1370.74,412.73h-93L1133.79,568.48V271h-73.07V758.19h73.07V602.44l143.93,155.75h93L1211.28,585.46Z"/><path d="M1581.87,400.17c-101.14,0-180.11,81.94-180.11,180.85,0,97.46,81.93,177.17,179.37,177.17h61.28V685.86h-60.54c-59.06,0-107-50.2-107-108.52,0-57.57,48.72-104.83,107-104.83s105.55,48,105.55,106.31V758.19h73.1V580.28C1760.52,479.91,1681.52,400.17,1581.87,400.17Z"/><path d="M1889,502.05c0-17,19.94-31.74,55.38-31.74,34.67,0,65,14.76,88.57,39.12l53.88-48.72c-36.9-38.4-86.35-60.54-140.25-60.54-65,0-130.65,34-130.65,106.29,0,118.12,206.68,98.92,206.68,155,0,19.17-23.61,39.12-65,39.12-38.38,0-72.34-17.72-98.92-46.5l-53.9,48.72c40.6,42.82,94.5,67.92,153.56,67.92,67.92,0,137.29-37.67,137.29-113C2095.64,536.75,1889,558.14,1889,502.05Z"/><path d="M2209.34,502.05c0-17,19.91-31.74,55.35-31.74,34.7,0,65,14.76,88.57,39.12l53.9-48.72c-36.92-38.4-86.37-60.54-140.25-60.54-64.95,0-130.68,34-130.68,106.29,0,118.12,206.72,98.92,206.72,155,0,19.17-23.65,39.12-65,39.12-38.38,0-72.34-17.72-98.92-46.5l-53.87,48.72c40.6,42.82,94.47,67.92,153.53,67.92,67.92,0,137.31-37.67,137.31-113C2416,536.75,2209.34,558.14,2209.34,502.05Z"/><path d="M2631.57,400.17c-104.1,0-186,81.2-186,185.29,0,103.33,81.93,185.3,186,185.3s186-82,186-185.3C2817.6,481.37,2735.64,400.17,2631.57,400.17Zm0,299.71c-62,0-112.22-51.68-112.22-114.42,0-63.5,50.2-115.15,112.22-115.15S2744.5,522,2744.5,585.46C2744.5,648.2,2693.59,699.88,2631.57,699.88Z"/><polygon points="924.21 815.41 917.07 815.41 917.07 921.79 924.21 921.79 929.99 921.79 977.86 921.79 977.86 909.64 929.99 909.64 929.99 870.12 974.82 870.12 974.82 857.96 929.99 857.96 929.99 827.57 977.86 827.57 977.86 815.41 929.99 815.41 924.21 815.41" fill="#e85d04"/><path d="M1051.72,853.71a23.47,23.47,0,0,0-12.76-3.35,22.22,22.22,0,0,0-20.82,12.47v-11H1006v69.91h12.16V879.24a18.43,18.43,0,0,1,2.2-9.12,15.5,15.5,0,0,1,6.23-6.15,19.15,19.15,0,0,1,9.35-2.21,15.83,15.83,0,0,1,8.2,2,12.22,12.22,0,0,1,5,5.85,24.49,24.49,0,0,1,1.67,9.65v42.55H1063V877.72a33.1,33.1,0,0,0-3-14.59A22.48,22.48,0,0,0,1051.72,853.71Z" fill="#e85d04"/><polygon points="1104.77 827.57 1092.61 827.57 1092.61 851.88 1081.21 851.88 1081.21 863.28 1092.61 863.28 1092.61 921.79 1104.77 921.79 1104.77 863.28 1116.16 863.28 1116.16 851.88 1104.77 851.88 1104.77 827.57" fill="#e85d04"/><path d="M1161.3,850.36a15.19,15.19,0,0,0-9.57,3.8,25.32,25.32,0,0,0-5.17,5.82v-8.1H1134.4v69.91h12.16V879.24a37.08,37.08,0,0,1,1-9,11.93,11.93,0,0,1,3.57-6.23,10.41,10.41,0,0,1,7.14-2.28,12.92,12.92,0,0,1,5,.84,22,22,0,0,1,4.41,2.66l6.68-10a13.7,13.7,0,0,0-6-3.88A24.31,24.31,0,0,0,1161.3,850.36Z" fill="#e85d04"/><path d="M1236.61,854.69q-7.38-4.32-17.71-4.33a36.41,36.41,0,0,0-14.13,2.66,31.91,31.91,0,0,0-11,7.45,33.58,33.58,0,0,0-7.06,11.47,42.23,42.23,0,0,0-2.51,14.9,41.25,41.25,0,0,0,4.18,19,31.54,31.54,0,0,0,11.7,12.84,32.24,32.24,0,0,0,17.25,4.64,40.41,40.41,0,0,0,19.53-4.49,36.75,36.75,0,0,0,13.76-13.3l-9.88-6.23a25.73,25.73,0,0,1-9.27,9.5,25,25,0,0,1-12.62,3.12,23,23,0,0,1-12.16-3,19.21,19.21,0,0,1-7.6-8.82,30.81,30.81,0,0,1-2.42-10.18h55c0-.2,0-.69.08-1.45s.07-1.49.07-2.2q0-11.09-4-19.15A28.6,28.6,0,0,0,1236.61,854.69Zm-34.12,12.85a18.78,18.78,0,0,1,7.07-4.87,25,25,0,0,1,9.34-1.67,20,20,0,0,1,10.34,2.59,18.39,18.39,0,0,1,6.91,7.14,21.06,21.06,0,0,1,2.41,8.81h-41.45a28.56,28.56,0,0,1,1-4.1A21.2,21.2,0,0,1,1202.49,867.54Z" fill="#e85d04"/><polygon points="1267.84 851.88 1267.84 863.28 1306.6 863.28 1263.28 921.79 1325.6 921.79 1325.6 910.4 1285.32 910.4 1328.63 851.88 1267.84 851.88" fill="#e85d04"/><polygon points="1350.67 944.44 1359.49 947.63 1376.2 909.64 1364.05 905.08 1350.67 944.44" fill="#e85d04"/><polygon points="1479.55 901.28 1459.79 851.88 1446.12 851.88 1479.55 927.12 1512.99 851.88 1499.31 851.88 1479.55 901.28" fill="#e85d04"/><path d="M1576.74,855.07a38.39,38.39,0,0,0-36.85,0,35,35,0,0,0-13,12.92,39.4,39.4,0,0,0,0,37.62,34.78,34.78,0,0,0,13,13,38.32,38.32,0,0,0,36.85,0,34.94,34.94,0,0,0,12.92-13,39.33,39.33,0,0,0,0-37.62A35.19,35.19,0,0,0,1576.74,855.07Zm2.28,44.69a23.45,23.45,0,0,1-8.51,8.89,24.52,24.52,0,0,1-24.47,0,23.6,23.6,0,0,1-8.51-8.89,26.2,26.2,0,0,1-3.11-12.92,26.64,26.64,0,0,1,3.11-13A22.9,22.9,0,0,1,1546,865a25.06,25.06,0,0,1,24.47,0,22.76,22.76,0,0,1,8.51,8.89,26.65,26.65,0,0,1,3.12,13A26.2,26.2,0,0,1,1579,899.76Z" fill="#e85d04"/><path d="M1662.08,894.44a18.43,18.43,0,0,1-2.2,9.12,15.56,15.56,0,0,1-6.23,6.15,19.2,19.2,0,0,1-9.35,2.21,15.41,15.41,0,0,1-8.21-2.06,12.51,12.51,0,0,1-5-5.92,23.9,23.9,0,0,1-1.67-9.5V851.88h-12.16V896a33.05,33.05,0,0,0,3,14.51,22.17,22.17,0,0,0,8.36,9.5,23.58,23.58,0,0,0,12.69,3.35,23.18,23.18,0,0,0,12.16-3.12,24.67,24.67,0,0,0,8.66-9.35v10.94h12.16V851.88h-12.16Z" fill="#e85d04"/><path d="M1737.46,885.09a94.73,94.73,0,0,0-11.09-5.24c-2.43-1-4.76-2.08-7-3.19a20.94,20.94,0,0,1-5.47-3.8,6.7,6.7,0,0,1-2.13-4.87,5.61,5.61,0,0,1,2.74-5.16,12.22,12.22,0,0,1,6.53-1.68,18.76,18.76,0,0,1,9.8,2.59,24.08,24.08,0,0,1,7.22,6.53l9.73-6.23a22.91,22.91,0,0,0-5.93-7,30.89,30.89,0,0,0-8.74-4.86,30.13,30.13,0,0,0-10.56-1.83,30.54,30.54,0,0,0-10.87,2,19.37,19.37,0,0,0-8.51,6.08,17.95,17.95,0,0,0-.15,20.44,24.35,24.35,0,0,0,7.75,6.54,89.36,89.36,0,0,0,9.2,4.33c2.73,1,5.32,2.1,7.75,3.27a19.87,19.87,0,0,1,6,4.25,8.65,8.65,0,0,1,2.36,6.16,7.77,7.77,0,0,1-3,6.45c-2,1.58-4.68,2.36-8.13,2.36a18.87,18.87,0,0,1-7.83-1.6,20.65,20.65,0,0,1-6.3-4.33,38.71,38.71,0,0,1-4.87-5.92l-9.57,5.92a30.76,30.76,0,0,0,28,17,26.65,26.65,0,0,0,12.54-2.82,21.46,21.46,0,0,0,8.44-7.6,19.87,19.87,0,0,0,3-10.86,16.52,16.52,0,0,0-3-10.19A25.13,25.13,0,0,0,1737.46,885.09Z" fill="#e85d04"/><path d="M1868,854.77a33.38,33.38,0,0,0-17.33-4.41A35.44,35.44,0,0,0,1834.5,854a31.42,31.42,0,0,0-11.77,10.18,37.52,37.52,0,0,0-6.08,15.2c-.21,1.22-.36,2.43-.46,3.65s-.15,2.48-.15,3.8a39.86,39.86,0,0,0,4.33,18.77,33,33,0,0,0,11.86,13,31.17,31.17,0,0,0,16.94,4.72,45,45,0,0,0,15.2-2.21,29.26,29.26,0,0,0,10.33-6.23,52.49,52.49,0,0,0,7.76-9.35l-9.88-6.23a27.75,27.75,0,0,1-5.47,6.61,24.37,24.37,0,0,1-7.22,4.41,25,25,0,0,1-9.2,1.6,23.38,23.38,0,0,1-11.85-2.89,19.12,19.12,0,0,1-7.75-8.51,28.84,28.84,0,0,1-2.61-10.64h55a11.26,11.26,0,0,0,.15-1.82v-1.83q0-11.09-4.1-19.07A30.06,30.06,0,0,0,1868,854.77Zm-39.21,24.77a19.77,19.77,0,0,1,10.79-15.95,23.75,23.75,0,0,1,11.09-2.59,20.65,20.65,0,0,1,10.26,2.36,17,17,0,0,1,6.54,6.53,25.23,25.23,0,0,1,3,9.65Z" fill="#e85d04"/><polygon points="1850.69 826.81 1867.41 841.24 1875.01 835.16 1850.69 813.89 1826.37 835.16 1833.97 841.24 1850.69 826.81" fill="#e85d04"/><polygon points="1919.39 827.57 1907.23 827.57 1907.23 851.88 1895.83 851.88 1895.83 863.28 1907.23 863.28 1907.23 921.79 1919.39 921.79 1919.39 863.28 1930.79 863.28 1930.79 851.88 1919.39 851.88 1919.39 827.57" fill="#e85d04"/><path d="M1995.3,854.69q-7.36-4.32-17.7-4.33a36.5,36.5,0,0,0-14.14,2.66,32,32,0,0,0-10.94,7.45,33.45,33.45,0,0,0-7.07,11.47,42.23,42.23,0,0,0-2.51,14.9,41.38,41.38,0,0,0,4.18,19,31.57,31.57,0,0,0,11.71,12.84,32.19,32.19,0,0,0,17.25,4.64,40.47,40.47,0,0,0,19.53-4.49,36.73,36.73,0,0,0,13.75-13.3l-9.88-6.23a25.58,25.58,0,0,1-9.27,9.5,25,25,0,0,1-12.61,3.12,23,23,0,0,1-12.16-3,19.1,19.1,0,0,1-7.6-8.82,30.81,30.81,0,0,1-2.43-10.18h55c0-.2,0-.69.08-1.45s.08-1.49.08-2.2q0-11.09-3.95-19.15A28.62,28.62,0,0,0,1995.3,854.69Zm-34.12,12.85a18.86,18.86,0,0,1,7.07-4.87,25,25,0,0,1,9.35-1.67,20,20,0,0,1,10.33,2.59,18.41,18.41,0,0,1,6.92,7.14,21.21,21.21,0,0,1,2.4,8.81H1955.8a31.51,31.51,0,0,1,1-4.1A21.48,21.48,0,0,1,1961.18,867.54Z" fill="#e85d04"/><path d="M2067.72,885.09a94.73,94.73,0,0,0-11.09-5.24c-2.43-1-4.77-2.08-7-3.19a20.77,20.77,0,0,1-5.47-3.8A6.7,6.7,0,0,1,2042,868a5.62,5.62,0,0,1,2.73-5.16,12.29,12.29,0,0,1,6.54-1.68,18.78,18.78,0,0,1,9.8,2.59,24.2,24.2,0,0,1,7.22,6.53l9.73-6.23a22.91,22.91,0,0,0-5.93-7,30.89,30.89,0,0,0-8.74-4.86,30.13,30.13,0,0,0-10.56-1.83,30.54,30.54,0,0,0-10.87,2,19.37,19.37,0,0,0-8.51,6.08,17.95,17.95,0,0,0-.15,20.44,24.24,24.24,0,0,0,7.75,6.54,90.22,90.22,0,0,0,9.19,4.33c2.74,1,5.32,2.1,7.76,3.27a19.87,19.87,0,0,1,6,4.25,8.64,8.64,0,0,1,2.35,6.16,7.76,7.76,0,0,1-3,6.45c-2,1.58-4.69,2.36-8.13,2.36a18.87,18.87,0,0,1-7.83-1.6,20.65,20.65,0,0,1-6.3-4.33,38.71,38.71,0,0,1-4.87-5.92l-9.57,5.92A31.17,31.17,0,0,0,2042,920.81a30.66,30.66,0,0,0,12.61,2.51,26.71,26.71,0,0,0,12.54-2.82,21.46,21.46,0,0,0,8.44-7.6,19.87,19.87,0,0,0,3-10.86,16.52,16.52,0,0,0-3-10.19A25.13,25.13,0,0,0,2067.72,885.09Z" fill="#e85d04"/><path d="M2181.71,850.36a36.37,36.37,0,0,0-18.39,4.71,35.11,35.11,0,0,0-13,12.92,39.4,39.4,0,0,0,0,37.62,34.86,34.86,0,0,0,13,13,36.18,36.18,0,0,0,18.39,4.72,42,42,0,0,0,13.91-2.36,23.55,23.55,0,0,0,10.41-6.61v-15.2a17.92,17.92,0,0,1-5.17,6.31,28.88,28.88,0,0,1-8.59,4.71,31.28,31.28,0,0,1-10.56,1.75,23.16,23.16,0,0,1-12.24-3.27,23.6,23.6,0,0,1-8.51-8.89,26.3,26.3,0,0,1-3.11-12.92,26.75,26.75,0,0,1,3.11-13,22.9,22.9,0,0,1,8.51-8.89,23.67,23.67,0,0,1,12.24-3.19,31.53,31.53,0,0,1,10.56,1.75,29.65,29.65,0,0,1,8.59,4.63,16.92,16.92,0,0,1,5.17,6.39v-15.2a23.55,23.55,0,0,0-10.41-6.61A42,42,0,0,0,2181.71,850.36Z" fill="#e85d04"/><path d="M2276.77,853.4a25.46,25.46,0,0,0-12.69-3,22.2,22.2,0,0,0-12.84,3.8,26,26,0,0,0-8,8.93V803.25H2231.1V921.79h12.16V879.24a18.13,18.13,0,0,1,2.21-9,16,16,0,0,1,6.23-6.23,18.62,18.62,0,0,1,9.34-2.28,15.78,15.78,0,0,1,8.29,2,12.34,12.34,0,0,1,4.94,5.85,24.49,24.49,0,0,1,1.67,9.65v42.55h12.16V877.72q0-9.12-3-15.2A20.35,20.35,0,0,0,2276.77,853.4Z" fill="#e85d04"/><path d="M2363.25,854.69q-7.36-4.32-17.7-4.33a36.5,36.5,0,0,0-14.14,2.66,32,32,0,0,0-10.94,7.45,33.45,33.45,0,0,0-7.07,11.47,42.23,42.23,0,0,0-2.51,14.9,41.38,41.38,0,0,0,4.18,19,31.57,31.57,0,0,0,11.71,12.84,32.19,32.19,0,0,0,17.25,4.64,40.47,40.47,0,0,0,19.53-4.49,36.73,36.73,0,0,0,13.75-13.3l-9.88-6.23a25.58,25.58,0,0,1-9.27,9.5,25,25,0,0,1-12.61,3.12,23,23,0,0,1-12.16-3,19.1,19.1,0,0,1-7.6-8.82,30.81,30.81,0,0,1-2.43-10.18h55c0-.2,0-.69.07-1.45s.08-1.49.08-2.2q0-11.09-4-19.15A28.62,28.62,0,0,0,2363.25,854.69Zm-34.12,12.85a18.86,18.86,0,0,1,7.07-4.87,25.07,25.07,0,0,1,9.35-1.67,20,20,0,0,1,10.33,2.59,18.35,18.35,0,0,1,6.92,7.14,21.06,21.06,0,0,1,2.4,8.81h-41.45a30,30,0,0,1,1-4.1A21.32,21.32,0,0,1,2329.13,867.54Z" fill="#e85d04"/><polygon points="2394.49 851.88 2394.49 863.28 2433.24 863.28 2389.93 921.79 2452.24 921.79 2452.24 910.4 2411.96 910.4 2455.28 851.88 2394.49 851.88" fill="#e85d04"/><polygon points="2548.75 901.28 2528.99 851.88 2515.31 851.88 2548.75 927.12 2582.18 851.88 2568.51 851.88 2548.75 901.28" fill="#e85d04"/><path d="M2645.94,855.07a38.41,38.41,0,0,0-36.86,0,35,35,0,0,0-13,12.92,39.33,39.33,0,0,0,0,37.62,34.76,34.76,0,0,0,13,13,38.34,38.34,0,0,0,36.86,0,34.94,34.94,0,0,0,12.92-13,39.4,39.4,0,0,0,0-37.62A35.19,35.19,0,0,0,2645.94,855.07Zm2.28,44.69a23.6,23.6,0,0,1-8.51,8.89,24.52,24.52,0,0,1-24.47,0,23.45,23.45,0,0,1-8.51-8.89,26.2,26.2,0,0,1-3.12-12.92,26.65,26.65,0,0,1,3.12-13,22.76,22.76,0,0,1,8.51-8.89,25.06,25.06,0,0,1,24.47,0,22.9,22.9,0,0,1,8.51,8.89,26.75,26.75,0,0,1,3.11,13A26.3,26.3,0,0,1,2648.22,899.76Z" fill="#e85d04"/><path d="M2731.28,894.44a18.43,18.43,0,0,1-2.21,9.12,15.56,15.56,0,0,1-6.23,6.15,19.15,19.15,0,0,1-9.35,2.21,15.35,15.35,0,0,1-8.2-2.06,12.52,12.52,0,0,1-5-5.92,24.08,24.08,0,0,1-1.67-9.5V851.88h-12.16V896a33.19,33.19,0,0,0,3,14.51,22.23,22.23,0,0,0,8.36,9.5,23.61,23.61,0,0,0,12.69,3.35,23.16,23.16,0,0,0,12.16-3.12,24.69,24.69,0,0,0,8.67-9.35v10.94h12.16V851.88h-12.16Z" fill="#e85d04"/><path d="M2814.64,891.85a25.35,25.35,0,0,0-8-6.76,94.14,94.14,0,0,0-11.1-5.24c-2.43-1-4.76-2.08-7-3.19a20.94,20.94,0,0,1-5.47-3.8A6.7,6.7,0,0,1,2781,868a5.63,5.63,0,0,1,2.74-5.16,12.22,12.22,0,0,1,6.53-1.68,18.82,18.82,0,0,1,9.81,2.59,24.2,24.2,0,0,1,7.22,6.53L2817,864a22.87,22.87,0,0,0-5.92-7,31,31,0,0,0-8.74-4.86,31.1,31.1,0,0,0-21.43.15,19.26,19.26,0,0,0-8.51,6.08,17.95,17.95,0,0,0-.15,20.44,24.13,24.13,0,0,0,7.75,6.54,89.22,89.22,0,0,0,9.19,4.33q4.11,1.51,7.75,3.27a20,20,0,0,1,6,4.25,8.64,8.64,0,0,1,2.35,6.16,7.79,7.79,0,0,1-3,6.45c-2,1.58-4.69,2.36-8.13,2.36a18.87,18.87,0,0,1-7.83-1.6,20.81,20.81,0,0,1-6.31-4.33,39.24,39.24,0,0,1-4.86-5.92l-9.58,5.92a30.76,30.76,0,0,0,28,17,26.71,26.71,0,0,0,12.54-2.82,21.5,21.5,0,0,0,8.43-7.6,19.79,19.79,0,0,0,3-10.86A16.58,16.58,0,0,0,2814.64,891.85Z" fill="#e85d04"/></svg>