<svg id="Layer_1" data-name="Layer 1" xmlns="http://www.w3.org/2000/svg" viewBox="0 0 400 143"><title>vector</title><path d="M69.43,68.73V29.91q-4.68-2.31-9.75-4.4a7,7,0,0,0-5.16,0q-5.07,2.1-9.75,4.4V68.74q6.13.14,12.27.14T69.43,68.73Z" fill="#e85d04"/><path d="M75.72,33.22V68.55q8.5-.28,17-.85h0v42.7a.44.44,0,0,1-.42.44h-14v0a2.36,2.36,0,0,0-1.56,1,49.44,49.44,0,0,1-5.18,6.57l-4.07,4.43-.15.17-.33.37c-1.55,1.72-4.62,4.9-8.91,9.2l-1,1c-2.84-2.77-8.88-8.75-11.25-11.1a3.37,3.37,0,0,0-2.36-1h0a3.37,3.37,0,0,0-2.4,5.73c5.33,5.4,12.66,12.7,13.68,13.67l1.23,1.18a1.69,1.69,0,0,0,2.36,0l3.49-3.47.09-.09,1-1,.16-.17c3-3,7-7.1,9.06-9.36l4.5-4.92.06-.07c1.42-1.58,2.88-3.26,4.21-5.06l.63-.87H92.29A6.76,6.76,0,0,0,99,110.4V67.25l3.54-.28a5.92,5.92,0,0,0,4.78-2.91,4.26,4.26,0,0,0-.41-4.61C99.31,49.34,88.86,40.56,75.72,33.22Z" fill="#e85d04"/><path d="M57.1,20.8a2,2,0,0,0,2-2V2.31a2,2,0,1,0-3.94,0V18.83A2,2,0,0,0,57.1,20.8Z" fill="#e85d04"/><path d="M31.9,25a2,2,0,1,0,3.54-1.7L28.28,8.44a2,2,0,1,0-3.55,1.71Z" fill="#e85d04"/><path d="M16.42,40.39a2,2,0,0,0-.31-2.77L3.19,27.32A2,2,0,0,0,.74,30.4L13.66,40.7A2,2,0,0,0,16.42,40.39Z" fill="#e85d04"/><path d="M113.77,27.64a2,2,0,0,0-2.76-.32L98.09,37.62a2,2,0,0,0,2.45,3.08l12.92-10.3A2,2,0,0,0,113.77,27.64Z" fill="#e85d04"/><path d="M79.67,26A2,2,0,0,0,82.3,25l7.17-14.88a2,2,0,0,0-3.55-1.71L78.76,23.33A2,2,0,0,0,79.67,26Z" fill="#e85d04"/><path d="M40.45,87c.18-.2.47-.51.66-.7l.06-.06c.25-.26.53-.52.82-.78l.06-.06a22.72,22.72,0,0,1,8.45-4.79,22.21,22.21,0,0,1,6.09-1h.51a22.41,22.41,0,0,1,11.18,3l.13.07A22.64,22.64,0,0,1,79.63,102.1c0,.24,0,.49,0,.73a3.31,3.31,0,0,0,3.28,3.54h.17a3.41,3.41,0,0,0,3.43-3.22q0-.53,0-1.05A29.53,29.53,0,0,0,72.13,76.81l-1.24-.69A29.24,29.24,0,0,0,57.1,72.68h-.62a29.37,29.37,0,0,0-19,7.5l-.08.07c-.4.37-.8.74-1.17,1.11l-.06.07-.39.41h-.07l-1.4,1.65-.67.86-.56.74a2.49,2.49,0,0,0-.19.3.18.18,0,0,0,0,.07l-.21.29,0,0-.1.16-.45.7-.06.1c-.16.25-.32.51-.48.82l0,.06a.05.05,0,0,1,0,0l-.09.15,0,.09a3.83,3.83,0,0,0-.51,1c0,.06-.06.12-.1.18l-.07.14c-.15.3-.29.6-.43.92l0,.09-.12.28a4,4,0,0,0-.37.9c0,.11-.09.22-.12.33l0,.1c-.11.28-.22.57-.3.83l-.08.25c0,.13-.08.26-.13.4a5.85,5.85,0,0,0-.19.64v0l-.15.53v0c-.05.18-.1.36-.14.56l-.12.48,0,.11c0,.16-.07.3-.09.45a5.23,5.23,0,0,0-.12.57v.08l-.08.49,0,.16c0,.12,0,.23-.05.35L28,98c0,.16,0,.33-.07.5v.09c0,.15,0,.31-.05.47l0,.23h0v0c0,.09,0,.15,0,.21v.11l0,.21,0,.43a.71.71,0,0,0,0,.15c0,.15,0,.3,0,.45v.1a3.85,3.85,0,0,0,0,.48v1.15s0,.09,0,.13v.17h0V103h0v0l.06,1a1.1,1.1,0,0,0,0,.18v.14c0,.1,0,.2,0,.25l0,.22h0l0,.24a1.37,1.37,0,0,0,0,.19c0,.08,0,.17,0,.24L28,106s0,.08,0,.12a23.94,23.94,0,0,0,1.13,4.25c.06.15.12.29.17.44H21.94a.45.45,0,0,1-.44-.45V67.7q8.47.57,17,.86V33.22C25.34,40.56,14.88,49.34,7.29,59.45a4.26,4.26,0,0,0-.41,4.61A5.92,5.92,0,0,0,11.66,67l3.55.29v43.09a6.74,6.74,0,0,0,6.72,6.74l16.06,0a1.61,1.61,0,0,0,1.3-2.55,22.82,22.82,0,0,1-4.48-9.64s0-.07,0-.11l-.15-1.13,0-.16,0-.68v-1.3c0-.11,0-.22,0-.33v-.17c0-.09,0-.18,0-.28l0-.46c0-.12,0-.25,0-.33h0a1.11,1.11,0,0,0,0-.19c0-.13,0-.25.05-.37v-.11c0-.1,0-.2,0-.3l.08-.57.06-.35,0-.28v0s0,0,0,0l0-.18c0-.13.06-.25.09-.43l0-.06c0-.11,0-.22.08-.33s0-.14,0-.21.05-.17.09-.3.07-.24.11-.39l.06-.22s0,0,0-.09l.05-.11c0-.13.08-.26.12-.39l.08-.23c.05-.17.11-.34.17-.49a1.27,1.27,0,0,0,.06-.18c0-.11.09-.22.13-.33l0,0a.87.87,0,0,0,.07-.17l.1-.22.24-.56q.11-.25.24-.51l.25-.49a1.46,1.46,0,0,1,.09-.18l.08-.15.21-.39a.65.65,0,0,0,.09-.16c.09-.16.18-.32.29-.48l.1-.16c.09-.15.18-.3.28-.44l.19-.19.14-.3a.83.83,0,0,1,.08-.12l.16-.24.36-.48.39-.5.15-.18.12-.15.16-.18a3.82,3.82,0,0,1,.27-.32Z" fill="#e85d04"/><circle cx="57.1" cy="102.06" r="13.84" fill="#e85d04"/><polygon points="140.63 47.67 140.63 38.82 129.94 38.82 129.94 53.68 140.63 47.67"/><polygon points="129.94 60.71 129.94 107.98 140.63 107.98 140.63 54.7 129.94 60.71"/><path d="M194.6,58.94H181.39L161,81.05V38.82H150.58V108H161V85.87L181.39,108H194.6L172,83.46Z"/><path d="M224.57,57.15A25.56,25.56,0,0,0,199,82.83C199,96.66,210.63,108,224.46,108h8.7V97.71h-8.59a15.46,15.46,0,0,1-15.2-15.4,15.09,15.09,0,0,1,30.18.21V108h10.38V82.72A25.29,25.29,0,0,0,224.57,57.15Z"/><path d="M268.16,71.62c0-2.41,2.84-4.51,7.87-4.51a17.32,17.32,0,0,1,12.57,5.55l7.65-6.91a27.43,27.43,0,0,0-19.91-8.6c-9.22,0-18.55,4.83-18.55,15.09,0,16.77,29.34,14.05,29.34,22,0,2.73-3.35,5.56-9.22,5.56-5.45,0-10.27-2.52-14-6.6l-7.65,6.91a29.83,29.83,0,0,0,21.8,9.64c9.64,0,19.49-5.34,19.49-16C297.51,76.54,268.16,79.58,268.16,71.62Z"/><path d="M313.65,71.62c0-2.41,2.82-4.51,7.86-4.51a17.32,17.32,0,0,1,12.57,5.55l7.65-6.91a27.43,27.43,0,0,0-19.91-8.6c-9.22,0-18.55,4.83-18.55,15.09,0,16.77,29.35,14.05,29.35,22,0,2.73-3.36,5.56-9.23,5.56-5.45,0-10.27-2.52-14-6.6l-7.65,6.91a29.83,29.83,0,0,0,21.8,9.64c9.64,0,19.49-5.34,19.49-16C343,76.54,313.65,79.58,313.65,71.62Z"/><path d="M373.59,57.15A26.31,26.31,0,1,0,400,83.46,26.08,26.08,0,0,0,373.59,57.15Zm0,42.55a16.3,16.3,0,1,1,16-16.24A16.12,16.12,0,0,1,373.59,99.7Z"/><polygon points="131.21 116.1 130.19 116.1 130.19 131.21 131.21 131.21 132.03 131.21 138.82 131.21 138.82 129.48 132.03 129.48 132.03 123.87 138.39 123.87 138.39 122.14 132.03 122.14 132.03 117.83 138.82 117.83 138.82 116.1 132.03 116.1 131.21 116.1" fill="#e85d04"/><path d="M149.31,121.54a3.34,3.34,0,0,0-4.77,1.29v-1.55h-1.73v9.93h1.73v-6a2.6,2.6,0,0,1,.31-1.3,2.26,2.26,0,0,1,.89-.87,2.69,2.69,0,0,1,1.32-.32,2.35,2.35,0,0,1,1.17.28,1.74,1.74,0,0,1,.71.84,3.4,3.4,0,0,1,.24,1.37v6h1.72V125a4.66,4.66,0,0,0-.42-2.07A3.19,3.19,0,0,0,149.31,121.54Z" fill="#e85d04"/><polygon points="156.84 117.83 155.11 117.83 155.11 121.28 153.49 121.28 153.49 122.9 155.11 122.9 155.11 131.21 156.84 131.21 156.84 122.9 158.46 122.9 158.46 121.28 156.84 121.28 156.84 117.83" fill="#e85d04"/><path d="M164.86,121.07a2.17,2.17,0,0,0-1.36.54,3.63,3.63,0,0,0-.73.82v-1.15H161v9.93h1.73v-6a5.51,5.51,0,0,1,.14-1.28,1.62,1.62,0,0,1,.51-.88,1.45,1.45,0,0,1,1-.33,1.78,1.78,0,0,1,.71.12,3.19,3.19,0,0,1,.63.38l.95-1.42a1.86,1.86,0,0,0-.85-.55A3.29,3.29,0,0,0,164.86,121.07Z" fill="#e85d04"/><path d="M175.55,121.68a4.84,4.84,0,0,0-2.51-.61,5.25,5.25,0,0,0-2,.37,4.7,4.7,0,0,0-1.55,1.06,4.81,4.81,0,0,0-1,1.63,5.91,5.91,0,0,0-.36,2.11,5.81,5.81,0,0,0,.6,2.7,4.31,4.31,0,0,0,1.66,1.82,4.54,4.54,0,0,0,2.45.66,5.81,5.81,0,0,0,2.77-.63,5.34,5.34,0,0,0,2-1.89l-1.4-.89a3.57,3.57,0,0,1-1.32,1.35,3.49,3.49,0,0,1-1.79.44,3.27,3.27,0,0,1-1.73-.43,2.69,2.69,0,0,1-1.07-1.25,4.41,4.41,0,0,1-.35-1.44h7.81s0-.1,0-.21,0-.21,0-.31a6,6,0,0,0-.56-2.72A4,4,0,0,0,175.55,121.68Zm-4.84,1.82a2.72,2.72,0,0,1,1-.69,3.75,3.75,0,0,1,1.33-.23,2.91,2.91,0,0,1,1.47.36,2.67,2.67,0,0,1,1,1,2.93,2.93,0,0,1,.34,1.25H170a3.51,3.51,0,0,1,.14-.58A3.08,3.08,0,0,1,170.71,123.5Z" fill="#e85d04"/><polygon points="179.99 121.28 179.99 122.9 185.49 122.9 179.34 131.21 188.19 131.21 188.19 129.59 182.47 129.59 188.62 121.28 179.99 121.28" fill="#e85d04"/><polygon points="191.75 134.42 193 134.88 195.37 129.48 193.65 128.83 191.75 134.42" fill="#e85d04"/><polygon points="210.04 128.29 207.24 121.28 205.3 121.28 210.04 131.96 214.79 121.28 212.85 121.28 210.04 128.29" fill="#e85d04"/><path d="M223.84,121.73a5.51,5.51,0,0,0-5.23,0,5,5,0,0,0-1.85,1.84,5.66,5.66,0,0,0,0,5.34,5,5,0,0,0,1.85,1.84,5.44,5.44,0,0,0,5.23,0,5,5,0,0,0,1.84-1.84,5.58,5.58,0,0,0,0-5.34A5.07,5.07,0,0,0,223.84,121.73Zm.33,6.35a3.4,3.4,0,0,1-1.21,1.26,3.35,3.35,0,0,1-4.68-1.26,4,4,0,0,1,0-3.68,3.17,3.17,0,0,1,1.2-1.26,3.37,3.37,0,0,1,4.69,1.26,4.07,4.07,0,0,1,0,3.68Z" fill="#e85d04"/><path d="M236,127.32a2.64,2.64,0,0,1-.32,1.3,2.17,2.17,0,0,1-.88.87,2.7,2.7,0,0,1-1.33.31,2.1,2.1,0,0,1-1.16-.29,1.68,1.68,0,0,1-.71-.84,3.36,3.36,0,0,1-.24-1.35v-6h-1.73v6.26a4.7,4.7,0,0,0,.42,2.06A3.2,3.2,0,0,0,231.2,131a3.4,3.4,0,0,0,1.8.47,3.34,3.34,0,0,0,1.73-.44,3.46,3.46,0,0,0,1.23-1.33v1.56h1.72v-9.93H236Z" fill="#e85d04"/><path d="M246.66,126a12.91,12.91,0,0,0-1.58-.75q-.51-.21-1-.45a3.15,3.15,0,0,1-.78-.54,1,1,0,0,1-.3-.69.81.81,0,0,1,.39-.74,1.83,1.83,0,0,1,.93-.23,2.69,2.69,0,0,1,1.39.36,3.5,3.5,0,0,1,1,.93l1.39-.88a3.36,3.36,0,0,0-.85-1,4.79,4.79,0,0,0-1.24-.69,4.49,4.49,0,0,0-3,0,2.72,2.72,0,0,0-1.21.86,2.56,2.56,0,0,0,0,2.9,3.54,3.54,0,0,0,1.1.93,11.76,11.76,0,0,0,1.31.61c.39.15.75.3,1.1.47a2.7,2.7,0,0,1,.85.6,1.25,1.25,0,0,1,.33.88,1.1,1.1,0,0,1-.42.91,1.75,1.75,0,0,1-1.15.34,2.72,2.72,0,0,1-1.11-.23,3.11,3.11,0,0,1-.9-.61,5.13,5.13,0,0,1-.69-.85l-1.36.85a4.64,4.64,0,0,0,.83,1.14,4.54,4.54,0,0,0,1.35.92,4.47,4.47,0,0,0,1.79.35,3.74,3.74,0,0,0,1.78-.4,3,3,0,0,0,1.2-1.08,2.77,2.77,0,0,0,.43-1.54,2.32,2.32,0,0,0-.42-1.44A3.45,3.45,0,0,0,246.66,126Z" fill="#e85d04"/><path d="M265.19,121.69a4.69,4.69,0,0,0-2.46-.62,5.11,5.11,0,0,0-2.3.51,4.5,4.5,0,0,0-1.67,1.45,5.31,5.31,0,0,0-.86,2.16c0,.17,0,.34-.07.51s0,.36,0,.54a5.68,5.68,0,0,0,.62,2.67,4.67,4.67,0,0,0,1.68,1.84,4.42,4.42,0,0,0,2.41.67,6.31,6.31,0,0,0,2.15-.31,4,4,0,0,0,1.47-.89,7.56,7.56,0,0,0,1.1-1.32l-1.4-.89a3.76,3.76,0,0,1-.78.94,3.35,3.35,0,0,1-1,.63,3.56,3.56,0,0,1-1.31.22,3.24,3.24,0,0,1-1.68-.41,2.73,2.73,0,0,1-1.1-1.2,4.09,4.09,0,0,1-.37-1.51h7.81a1.18,1.18,0,0,0,0-.26v-.26a5.86,5.86,0,0,0-.58-2.71A4.23,4.23,0,0,0,265.19,121.69Zm-5.56,3.52A2.83,2.83,0,0,1,260,124a3,3,0,0,1,1.14-1,3.42,3.42,0,0,1,1.57-.36,3,3,0,0,1,1.46.33,2.44,2.44,0,0,1,.93.93,3.61,3.61,0,0,1,.42,1.37Z" fill="#e85d04"/><polygon points="262.73 117.72 265.11 119.77 266.19 118.91 262.73 115.89 259.28 118.91 260.36 119.77 262.73 117.72" fill="#e85d04"/><polygon points="272.49 117.83 270.76 117.83 270.76 121.28 269.14 121.28 269.14 122.9 270.76 122.9 270.76 131.21 272.49 131.21 272.49 122.9 274.1 122.9 274.1 121.28 272.49 121.28 272.49 117.83" fill="#e85d04"/><path d="M283.26,121.68a4.86,4.86,0,0,0-2.51-.61,5.25,5.25,0,0,0-2,.37,4.54,4.54,0,0,0-2.55,2.69,6.42,6.42,0,0,0,.23,4.81,4.44,4.44,0,0,0,1.66,1.82,4.59,4.59,0,0,0,2.45.66,5.82,5.82,0,0,0,2.78-.63,5.34,5.34,0,0,0,1.95-1.89l-1.4-.89a3.57,3.57,0,0,1-1.32,1.35,3.52,3.52,0,0,1-1.79.44,3.27,3.27,0,0,1-1.73-.43,2.77,2.77,0,0,1-1.08-1.25,4.41,4.41,0,0,1-.34-1.44h7.81s0-.1,0-.21,0-.21,0-.31a6.17,6.17,0,0,0-.56-2.72A4,4,0,0,0,283.26,121.68Zm-4.84,1.82a2.72,2.72,0,0,1,1-.69,3.75,3.75,0,0,1,1.33-.23,2.91,2.91,0,0,1,1.47.36,2.74,2.74,0,0,1,1,1,2.93,2.93,0,0,1,.34,1.25h-5.89a4.92,4.92,0,0,1,.14-.58A3.25,3.25,0,0,1,278.42,123.5Z" fill="#e85d04"/><path d="M293.54,126a12.74,12.74,0,0,0-1.57-.75q-.53-.21-1-.45a3,3,0,0,1-.78-.54,1,1,0,0,1-.3-.69.81.81,0,0,1,.39-.74,1.77,1.77,0,0,1,.92-.23,2.73,2.73,0,0,1,1.4.36,3.5,3.5,0,0,1,1,.93L295,123a3.18,3.18,0,0,0-.84-1,4.79,4.79,0,0,0-1.24-.69,4.37,4.37,0,0,0-1.5-.25,4.24,4.24,0,0,0-1.54.28,2.66,2.66,0,0,0-1.21.86,2.29,2.29,0,0,0-.47,1.47,2.24,2.24,0,0,0,.45,1.43,3.43,3.43,0,0,0,1.1.93,11.63,11.63,0,0,0,1.3.61c.39.15.76.3,1.1.47a2.75,2.75,0,0,1,.86.6,1.25,1.25,0,0,1,.33.88,1.1,1.1,0,0,1-.42.91,1.78,1.78,0,0,1-1.16.34,2.72,2.72,0,0,1-1.11-.23,3.2,3.2,0,0,1-.89-.61,5.13,5.13,0,0,1-.69-.85l-1.36.85a4.17,4.17,0,0,0,.83,1.14,4.41,4.41,0,0,0,1.35.92,4.47,4.47,0,0,0,1.79.35,3.77,3.77,0,0,0,1.78-.4,3,3,0,0,0,1.2-1.08,2.85,2.85,0,0,0,.43-1.54,2.32,2.32,0,0,0-.42-1.44A3.39,3.39,0,0,0,293.54,126Z" fill="#e85d04"/><path d="M309.73,121.07a5.23,5.23,0,0,0-2.62.66,5,5,0,0,0-1.84,1.84,5.58,5.58,0,0,0,0,5.34,4.92,4.92,0,0,0,1.84,1.84,5.14,5.14,0,0,0,2.62.67,6,6,0,0,0,2-.33,3.38,3.38,0,0,0,1.48-.94V128a2.54,2.54,0,0,1-.74.9,4.16,4.16,0,0,1-1.21.67,4.62,4.62,0,0,1-1.5.24,3.28,3.28,0,0,1-1.74-.46,3.4,3.4,0,0,1-1.21-1.26,4.07,4.07,0,0,1,0-3.68,3.28,3.28,0,0,1,3-1.72,4.63,4.63,0,0,1,1.5.25,4.38,4.38,0,0,1,1.21.66,2.41,2.41,0,0,1,.74.91v-2.16a3.38,3.38,0,0,0-1.48-.94A6,6,0,0,0,309.73,121.07Z" fill="#e85d04"/><path d="M323.22,121.5a3.58,3.58,0,0,0-1.8-.43,3.13,3.13,0,0,0-1.82.54,3.65,3.65,0,0,0-1.14,1.26v-8.49h-1.72v16.83h1.72v-6a2.59,2.59,0,0,1,.32-1.28,2.26,2.26,0,0,1,.88-.88,2.6,2.6,0,0,1,1.33-.33,2.3,2.3,0,0,1,1.17.28,1.79,1.79,0,0,1,.71.84,3.59,3.59,0,0,1,.23,1.37v6h1.73V125a5,5,0,0,0-.42-2.16A2.93,2.93,0,0,0,323.22,121.5Z" fill="#e85d04"/><path d="M335.5,121.68a4.9,4.9,0,0,0-2.52-.61,5.16,5.16,0,0,0-2,.37,4.74,4.74,0,0,0-1.56,1.06,4.81,4.81,0,0,0-1,1.63,5.91,5.91,0,0,0-.35,2.11,5.81,5.81,0,0,0,.59,2.7,4.37,4.37,0,0,0,1.66,1.82,4.56,4.56,0,0,0,2.45.66,5.78,5.78,0,0,0,2.77-.63,5.19,5.19,0,0,0,1.95-1.89l-1.4-.89a3.62,3.62,0,0,1-1.31,1.35,3.53,3.53,0,0,1-1.8.44,3.23,3.23,0,0,1-1.72-.43,2.65,2.65,0,0,1-1.08-1.25,4.17,4.17,0,0,1-.34-1.44h7.81s0-.1,0-.21,0-.21,0-.31a6.17,6.17,0,0,0-.56-2.72A4.1,4.1,0,0,0,335.5,121.68Zm-4.85,1.82a2.75,2.75,0,0,1,1-.69,3.69,3.69,0,0,1,1.32-.23,2.89,2.89,0,0,1,1.47.36,2.6,2.6,0,0,1,1,1,3.09,3.09,0,0,1,.35,1.25h-5.89a4.92,4.92,0,0,1,.14-.58A3.08,3.08,0,0,1,330.65,123.5Z" fill="#e85d04"/><polygon points="339.93 121.28 339.93 122.9 345.43 122.9 339.29 131.21 348.13 131.21 348.13 129.59 342.41 129.59 348.56 121.28 339.93 121.28" fill="#e85d04"/><polygon points="361.83 128.29 359.03 121.28 357.08 121.28 361.83 131.96 366.58 121.28 364.64 121.28 361.83 128.29" fill="#e85d04"/><path d="M375.63,121.73a5.51,5.51,0,0,0-5.23,0,5,5,0,0,0-1.85,1.84,5.58,5.58,0,0,0,0,5.34,5,5,0,0,0,1.85,1.84,5.44,5.44,0,0,0,5.23,0,4.9,4.9,0,0,0,1.83-1.84,5.58,5.58,0,0,0,0-5.34A5,5,0,0,0,375.63,121.73Zm.32,6.35a3.42,3.42,0,0,1-4.68,1.26,3.4,3.4,0,0,1-1.21-1.26,4.07,4.07,0,0,1,0-3.68,3.28,3.28,0,0,1,2.95-1.72,3.3,3.3,0,0,1,1.74.46,3.17,3.17,0,0,1,1.2,1.26,4,4,0,0,1,0,3.68Z" fill="#e85d04"/><path d="M387.74,127.32a2.63,2.63,0,0,1-.31,1.3,2.23,2.23,0,0,1-.88.87,2.72,2.72,0,0,1-1.33.31,2.1,2.1,0,0,1-1.16-.29,1.75,1.75,0,0,1-.72-.84,3.37,3.37,0,0,1-.23-1.35v-6h-1.73v6.26a4.7,4.7,0,0,0,.42,2.06A3.2,3.2,0,0,0,383,131a3.4,3.4,0,0,0,1.8.47,3.28,3.28,0,0,0,1.72-.44,3.46,3.46,0,0,0,1.23-1.33v1.56h1.73v-9.93h-1.73Z" fill="#e85d04"/><path d="M399.58,127a3.45,3.45,0,0,0-1.13-1,12.91,12.91,0,0,0-1.58-.75q-.51-.21-1-.45a3,3,0,0,1-.78-.54,1,1,0,0,1-.3-.69.81.81,0,0,1,.39-.74,1.83,1.83,0,0,1,.93-.23,2.72,2.72,0,0,1,1.39.36,3.5,3.5,0,0,1,1,.93l1.38-.88a3.18,3.18,0,0,0-.84-1,4.79,4.79,0,0,0-1.24-.69,4.37,4.37,0,0,0-1.5-.25,4.28,4.28,0,0,0-1.54.28,2.66,2.66,0,0,0-1.21.86,2.29,2.29,0,0,0-.46,1.47,2.24,2.24,0,0,0,.44,1.43,3.43,3.43,0,0,0,1.1.93,11,11,0,0,0,1.31.61c.38.15.75.3,1.1.47a2.82,2.82,0,0,1,.85.6,1.25,1.25,0,0,1,.33.88,1.1,1.1,0,0,1-.42.91,1.75,1.75,0,0,1-1.15.34,2.65,2.65,0,0,1-1.11-.23,3.11,3.11,0,0,1-.9-.61,5.13,5.13,0,0,1-.69-.85l-1.36.85a4.39,4.39,0,0,0,.83,1.14,4.54,4.54,0,0,0,1.35.92,4.47,4.47,0,0,0,1.79.35,3.74,3.74,0,0,0,1.78-.4,3,3,0,0,0,1.2-1.08,2.77,2.77,0,0,0,.43-1.54A2.32,2.32,0,0,0,399.58,127Z" fill="#e85d04"/></svg>