<svg id="Layer_1" data-name="Layer 1" xmlns="http://www.w3.org/2000/svg" viewBox="0 0 800 285"><title>vector</title><path d="M138.85,137V59.32q-9.34-4.6-19.49-8.79a13.84,13.84,0,0,0-10.32,0Q98.9,54.7,89.55,59.33V137q12.26.28,24.52.28T138.85,137Z" fill="#e85d04"/><path d="M151.44,65.93v70.68q17-.59,34-1.7h0v85.38a.88.88,0,0,1-.85.9H156.5v.08a4.6,4.6,0,0,0-3.12,2.08A99.49,99.49,0,0,1,143,236.48l-8.13,8.87-.31.32-.66.76c-3.09,3.44-9.25,9.8-17.82,18.4l-2,2c-5.68-5.54-17.76-17.51-22.5-22.2a6.68,6.68,0,0,0-4.72-1.95h0A6.74,6.74,0,0,0,82,254.18c10.66,10.81,25.32,25.4,27.35,27.35l2.47,2.35a3.39,3.39,0,0,0,4.72-.05l7-6.94.18-.19,2-2,.32-.32c6.07-6.1,14.06-14.21,18.11-18.74l9-9.83.12-.14c2.85-3.16,5.75-6.52,8.42-10.13.43-.57.84-1.15,1.26-1.73h21.59A13.51,13.51,0,0,0,198,220.29V134c2.37-.17,4.72-.36,7.09-.56a11.82,11.82,0,0,0,9.56-5.82,8.52,8.52,0,0,0-.83-9.23C198.63,98.19,177.73,80.62,151.44,65.93Z" fill="#e85d04"/><path d="M114.2,41.1a3.93,3.93,0,0,0,3.93-3.93V4.12a3.93,3.93,0,1,0-7.86,0V37.17A3.93,3.93,0,0,0,114.2,41.1Z" fill="#e85d04"/><path d="M63.8,49.57a3.94,3.94,0,1,0,7.09-3.42L56.55,16.38a3.94,3.94,0,1,0-7.09,3.42Z" fill="#e85d04"/><path d="M32.84,80.28a3.93,3.93,0,0,0-.62-5.53L6.39,54.15A3.93,3.93,0,1,0,1.48,60.3L27.32,80.9A3.92,3.92,0,0,0,32.84,80.28Z" fill="#e85d04"/><path d="M227.54,54.77a3.93,3.93,0,0,0-5.53-.62l-25.83,20.6a3.93,3.93,0,1,0,4.9,6.15l25.84-20.6A3.93,3.93,0,0,0,227.54,54.77Z" fill="#e85d04"/><path d="M159.35,51.41a3.93,3.93,0,0,0,5.25-1.84L178.94,19.8a3.94,3.94,0,1,0-7.09-3.42L157.51,46.15A4,4,0,0,0,159.35,51.41Z" fill="#e85d04"/><path d="M80.9,173.39c.35-.39.94-1,1.31-1.39l.12-.11c.52-.53,1.08-1.06,1.65-1.58l.12-.1a44.92,44.92,0,0,1,29.08-11.56h1a44.92,44.92,0,0,1,22.36,6l.25.14a45.23,45.23,0,0,1,22.45,38.95c0,.5,0,1,0,1.48a6.65,6.65,0,0,0,6.57,7.08h.34A6.84,6.84,0,0,0,173,205.8c0-.7,0-1.4,0-2.11a59.07,59.07,0,0,0-28.77-50.57l-2.49-1.39a58.61,58.61,0,0,0-27.58-6.87H113a58.25,58.25,0,0,0-16,2.57,59.22,59.22,0,0,0-22,12.43l-.15.14c-.8.73-1.59,1.47-2.33,2.21l-.13.14c-.27.27-.53.53-.79.81h-.13l-2.79,3.31c-.46.56-.9,1.11-1.35,1.72l-1.12,1.48a5,5,0,0,0-.39.59l-.09.14-.41.59-.07.1-.2.31c-.3.47-.6.94-.89,1.41L64,173c-.32.5-.65,1-1,1.63l-.08.13a.79.79,0,0,0,0,.09l-.17.3-.1.17a8.18,8.18,0,0,0-1,1.94q-.09.16-.18.36l-.14.28c-.3.6-.59,1.21-.86,1.83l-.09.2q-.11.27-.24.54a7.92,7.92,0,0,0-.74,1.81l-.25.66-.07.19c-.22.57-.43,1.15-.59,1.67l-.18.49-.24.8a9.46,9.46,0,0,0-.39,1.28l0,.08c-.1.34-.2.7-.29,1l0,.1a11.21,11.21,0,0,0-.29,1.11c-.08.32-.16.63-.23.95l-.05.24c-.07.3-.13.59-.19.88s-.17.77-.22,1.14l0,.17c-.05.33-.1.65-.16,1,0,.11,0,.22,0,.33s-.08.47-.11.71l-.05.34c-.06.33-.09.67-.13,1l0,.18c0,.32-.08.63-.11.94a4.49,4.49,0,0,0-.06.48h0v0c0,.16,0,.3,0,.4l0,.22,0,.42-.06.86c0,.1,0,.21,0,.31,0,.3,0,.61,0,.91v.18c0,.32,0,.66,0,1v.29c0,.34,0,.69,0,1s0,.54,0,.81v.15c0,.09,0,.18,0,.27v.34h0v.34l.12,2,0,.34,0,.29c0,.2,0,.39.06.51s0,.29,0,.44h0c0,.15,0,.31,0,.47s0,.24.06.39,0,.33.06.47l.14,1a1.87,1.87,0,0,1,0,.25,47.68,47.68,0,0,0,2.28,8.5c.1.3.22.59.33.88H43.89a.9.9,0,0,1-.9-.89v-85.3q16.95,1.13,34,1.7V65.94C50.68,80.63,29.77,98.19,14.58,118.39a8.51,8.51,0,0,0-.82,9.23,11.8,11.8,0,0,0,9.55,5.82c2.37.2,4.73.39,7.1.57v86.2a13.49,13.49,0,0,0,13.46,13.47l32.1.09a3.22,3.22,0,0,0,2.6-5.12c-4.38-5.9-7.76-12.26-8.94-19.28a1.18,1.18,0,0,1,0-.2l-.29-2.28,0-.31-.09-1.36v0l0-.81a.66.66,0,0,0,0-.14v-1.61c0-.23,0-.44,0-.66v-.33c0-.19,0-.37,0-.56l.06-.93c0-.25,0-.5.06-.67h0c0-.12,0-.24,0-.37s0-.51.08-.76l0-.2c0-.2,0-.41.07-.61l.17-1.14c.05-.24.08-.47.12-.7l.1-.56,0-.1s0,0,0,0l.08-.37c.05-.24.1-.49.18-.85l0-.12.16-.65c0-.15.07-.29.1-.43l.17-.61c0-.23.13-.47.22-.77,0-.14.07-.29.11-.43a1.27,1.27,0,0,0,.06-.18l.08-.24c.08-.26.17-.52.24-.76l.16-.48c.11-.33.23-.66.35-1,0-.12.09-.23.13-.36l.25-.66,0-.09.13-.36c.07-.16.14-.3.19-.43l.49-1.11c.15-.35.31-.69.48-1l.49-1c0-.08.1-.21.19-.37s.13-.23.16-.3l.42-.76.18-.32q.27-.5.57-1l.21-.34c.18-.29.36-.59.55-.88l.38-.37.28-.61.16-.23a5.13,5.13,0,0,0,.33-.49l.72-.94c.25-.35.51-.68.78-1l.29-.34c.09-.11.16-.21.25-.31l.31-.37c.17-.2.36-.42.55-.62Z" fill="#e85d04"/><circle cx="114.2" cy="203.63" r="27.68" transform="translate(-117.63 231.21) rotate(-67.5)" fill="#e85d04"/><polygon points="281.25 94.84 281.25 77.13 259.88 77.13 259.88 106.86 281.25 94.84"/><polygon points="259.88 120.92 259.88 215.46 281.25 215.46 281.25 108.89 259.88 120.92"/><path d="M389.19,117.38H362.78L321.92,161.6V77.13H301.17V215.46h20.75V171.24l40.86,44.22h26.41l-45.27-49Z"/><path d="M449.14,113.81A51.11,51.11,0,0,0,398,165.16c0,27.67,23.26,50.3,50.93,50.3h17.4V194.92H449.14c-16.77,0-30.39-14.25-30.39-30.81,0-16.34,13.83-29.76,30.39-29.76a30.15,30.15,0,0,1,30,30.18v50.93h20.75V165C499.86,136.45,477.43,113.81,449.14,113.81Z"/><path d="M536.33,142.73c0-4.82,5.66-9,15.72-9,9.85,0,18.45,4.19,25.15,11.11L592.5,131a54.81,54.81,0,0,0-39.82-17.19c-18.45,0-37.1,9.64-37.1,30.18,0,33.53,58.68,28.08,58.68,44,0,5.44-6.7,11.1-18.44,11.1-10.89,0-20.54-5-28.08-13.2l-15.31,13.83C524,211.9,539.26,219,556,219c19.29,0,39-10.69,39-32.07C595,152.59,536.33,158.66,536.33,142.73Z"/><path d="M627.3,142.73c0-4.82,5.65-9,15.71-9,9.85,0,18.44,4.19,25.15,11.11L683.46,131a54.81,54.81,0,0,0-39.82-17.19c-18.44,0-37.1,9.64-37.1,30.18,0,33.53,58.69,28.08,58.69,44,0,5.44-6.71,11.1-18.45,11.1-10.89,0-20.54-5-28.08-13.2l-15.3,13.83C614.93,211.9,630.22,219,647,219c19.29,0,39-10.69,39-32.07C686,152.59,627.3,158.66,627.3,142.73Z"/><path d="M747.18,113.81c-29.56,0-52.82,23.05-52.82,52.61a52.82,52.82,0,0,0,105.64,0C800,136.86,776.73,113.81,747.18,113.81Zm0,85.09c-17.61,0-31.86-14.67-31.86-32.48,0-18,14.25-32.7,31.86-32.7s32.06,14.67,32.06,32.7C779.24,184.23,764.79,198.9,747.18,198.9Z"/><polygon points="262.41 231.71 260.38 231.71 260.38 261.91 262.41 261.91 264.05 261.91 277.64 261.91 277.64 258.46 264.05 258.46 264.05 247.24 276.78 247.24 276.78 243.79 264.05 243.79 264.05 235.16 277.64 235.16 277.64 231.71 264.05 231.71 262.41 231.71" fill="#e85d04"/><path d="M298.62,242.58a6.66,6.66,0,0,0-9.54,2.59v-3.11h-3.45v19.85h3.45V249.83a5.31,5.31,0,0,1,.62-2.59,4.45,4.45,0,0,1,1.77-1.75,5.56,5.56,0,0,1,2.66-.62,4.57,4.57,0,0,1,2.33.56,3.47,3.47,0,0,1,1.42,1.66,6.86,6.86,0,0,1,.48,2.74v12.08h3.45V249.4a9.38,9.38,0,0,0-.84-4.14A6.41,6.41,0,0,0,298.62,242.58Z" fill="#e85d04"/><polygon points="313.68 235.16 310.22 235.16 310.22 242.06 306.99 242.06 306.99 245.3 310.22 245.3 310.22 261.91 313.68 261.91 313.68 245.3 316.91 245.3 316.91 242.06 313.68 242.06 313.68 235.16" fill="#e85d04"/><path d="M329.73,241.63a4.31,4.31,0,0,0-2.72,1.08,7.32,7.32,0,0,0-1.47,1.65v-2.3h-3.45v19.85h3.45V249.83a10.93,10.93,0,0,1,.28-2.55,3.47,3.47,0,0,1,1-1.77,3,3,0,0,1,2-.64,3.68,3.68,0,0,1,1.43.24,5.63,5.63,0,0,1,1.25.75l1.9-2.85a4,4,0,0,0-1.71-1.1A6.72,6.72,0,0,0,329.73,241.63Z" fill="#e85d04"/><path d="M351.11,242.86a9.77,9.77,0,0,0-5-1.23,10.2,10.2,0,0,0-4,.76A8.89,8.89,0,0,0,339,244.5a9.46,9.46,0,0,0-2,3.26,11.84,11.84,0,0,0-.72,4.23,11.72,11.72,0,0,0,1.19,5.39,9,9,0,0,0,3.32,3.65,9.14,9.14,0,0,0,4.9,1.31,11.49,11.49,0,0,0,5.55-1.27,10.49,10.49,0,0,0,3.9-3.77l-2.8-1.77a7.33,7.33,0,0,1-2.64,2.69,7.1,7.1,0,0,1-3.58.89,6.59,6.59,0,0,1-3.45-.86,5.44,5.44,0,0,1-2.16-2.51,8.82,8.82,0,0,1-.69-2.89H355.4c0-.06,0-.19,0-.41s0-.42,0-.62a12.2,12.2,0,0,0-1.13-5.44A8.07,8.07,0,0,0,351.11,242.86Zm-9.69,3.65a5.24,5.24,0,0,1,2-1.38,7,7,0,0,1,2.65-.48,5.73,5.73,0,0,1,2.94.74,5.21,5.21,0,0,1,2,2,5.91,5.91,0,0,1,.68,2.51H339.89a8.34,8.34,0,0,1,.28-1.17A6,6,0,0,1,341.42,246.51Z" fill="#e85d04"/><polygon points="359.98 242.06 359.98 245.3 370.98 245.3 358.68 261.91 376.38 261.91 376.38 258.68 364.94 258.68 377.24 242.06 359.98 242.06" fill="#e85d04"/><polygon points="383.5 268.34 386 269.25 390.75 258.46 387.29 257.17 383.5 268.34" fill="#e85d04"/><polygon points="420.09 256.09 414.48 242.06 410.6 242.06 420.09 263.42 429.58 242.06 425.7 242.06 420.09 256.09" fill="#e85d04"/><path d="M447.68,243a10.88,10.88,0,0,0-10.46,0,9.92,9.92,0,0,0-3.69,3.67,11.16,11.16,0,0,0,0,10.68,9.9,9.9,0,0,0,3.69,3.69,10.95,10.95,0,0,0,10.46,0,9.85,9.85,0,0,0,3.67-3.69,11.16,11.16,0,0,0,0-10.68A9.87,9.87,0,0,0,447.68,243Zm.65,12.69a6.66,6.66,0,0,1-2.42,2.52,6.94,6.94,0,0,1-6.94,0,6.73,6.73,0,0,1-2.42-2.52,7.46,7.46,0,0,1-.88-3.67,7.57,7.57,0,0,1,.88-3.69,6.55,6.55,0,0,1,2.42-2.53,7.14,7.14,0,0,1,6.94,0,6.48,6.48,0,0,1,2.42,2.53,7.57,7.57,0,0,1,.89,3.69A7.47,7.47,0,0,1,448.33,255.66Z" fill="#e85d04"/><path d="M471.91,254.15a5.27,5.27,0,0,1-.62,2.58,4.39,4.39,0,0,1-1.77,1.75,5.42,5.42,0,0,1-2.66.63,4.47,4.47,0,0,1-2.33-.58,3.6,3.6,0,0,1-1.42-1.69,6.72,6.72,0,0,1-.47-2.69V242.06h-3.46v12.52a9.3,9.3,0,0,0,.85,4.12,6.37,6.37,0,0,0,2.37,2.7,6.71,6.71,0,0,0,3.6.94,6.53,6.53,0,0,0,3.45-.88,7,7,0,0,0,2.46-2.65v3.1h3.46V242.06h-3.46Z" fill="#e85d04"/><path d="M493.32,251.49a27.2,27.2,0,0,0-3.15-1.49c-.69-.28-1.36-.59-2-.9a6.05,6.05,0,0,1-1.55-1.08,1.92,1.92,0,0,1-.61-1.38,1.61,1.61,0,0,1,.78-1.47,3.48,3.48,0,0,1,1.86-.47,5.32,5.32,0,0,1,2.78.73,7,7,0,0,1,2.05,1.85l2.76-1.77a6.53,6.53,0,0,0-1.68-2,8.67,8.67,0,0,0-2.48-1.38,8.52,8.52,0,0,0-3-.52,8.8,8.8,0,0,0-3.09.56,5.47,5.47,0,0,0-2.41,1.73,5.1,5.1,0,0,0,0,5.8,7,7,0,0,0,2.2,1.86,27.75,27.75,0,0,0,2.61,1.23c.78.29,1.52.6,2.21.93a5.75,5.75,0,0,1,1.7,1.2,2.46,2.46,0,0,1,.67,1.75,2.23,2.23,0,0,1-.84,1.84,3.65,3.65,0,0,1-2.31.66,5.37,5.37,0,0,1-2.22-.45,5.72,5.72,0,0,1-1.79-1.23,11.7,11.7,0,0,1-1.39-1.68l-2.71,1.68a8.44,8.44,0,0,0,1.66,2.29,8.53,8.53,0,0,0,2.69,1.83,8.65,8.65,0,0,0,3.59.71,7.65,7.65,0,0,0,3.56-.79,6.19,6.19,0,0,0,2.39-2.16,5.62,5.62,0,0,0,.86-3.09,4.7,4.7,0,0,0-.84-2.89A7,7,0,0,0,493.32,251.49Z" fill="#e85d04"/><path d="M530.39,242.88a9.52,9.52,0,0,0-4.92-1.25,10.07,10.07,0,0,0-4.6,1,8.81,8.81,0,0,0-3.34,2.89,10.58,10.58,0,0,0-1.73,4.31c-.06.35-.1.69-.13,1s0,.7,0,1.08a11.35,11.35,0,0,0,1.23,5.33,9.38,9.38,0,0,0,3.36,3.69,8.91,8.91,0,0,0,4.81,1.33,12.74,12.74,0,0,0,4.32-.62,8.36,8.36,0,0,0,2.93-1.77,14.76,14.76,0,0,0,2.2-2.65l-2.8-1.77a7.85,7.85,0,0,1-1.55,1.87,6.84,6.84,0,0,1-2,1.25,6.94,6.94,0,0,1-2.61.46,6.7,6.7,0,0,1-3.37-.82,5.46,5.46,0,0,1-2.2-2.42,8.08,8.08,0,0,1-.74-3h15.63a4.38,4.38,0,0,0,0-.52v-.51a11.69,11.69,0,0,0-1.17-5.42A8.56,8.56,0,0,0,530.39,242.88Zm-11.14,7a5.73,5.73,0,0,1,.8-2.44,5.64,5.64,0,0,1,2.27-2.09,6.71,6.71,0,0,1,3.15-.74,5.91,5.91,0,0,1,2.91.67,4.79,4.79,0,0,1,1.85,1.86,7.11,7.11,0,0,1,.85,2.74Z" fill="#e85d04"/><polygon points="525.47 234.94 530.21 239.04 532.37 237.32 525.47 231.28 518.56 237.32 520.72 239.04 525.47 234.94" fill="#e85d04"/><polygon points="544.97 235.16 541.52 235.16 541.52 242.06 538.28 242.06 538.28 245.3 541.52 245.3 541.52 261.91 544.97 261.91 544.97 245.3 548.21 245.3 548.21 242.06 544.97 242.06 544.97 235.16" fill="#e85d04"/><path d="M566.53,242.86a9.79,9.79,0,0,0-5-1.23,10.25,10.25,0,0,0-4,.76,8.94,8.94,0,0,0-3.1,2.11,9.48,9.48,0,0,0-2,3.26,12.07,12.07,0,0,0-.71,4.23,11.6,11.6,0,0,0,1.19,5.39,8.89,8.89,0,0,0,3.32,3.65,9.1,9.1,0,0,0,4.9,1.31,11.47,11.47,0,0,0,5.54-1.27,10.51,10.51,0,0,0,3.91-3.77l-2.81-1.77a7.31,7.31,0,0,1-2.63,2.69,7.12,7.12,0,0,1-3.58.89,6.56,6.56,0,0,1-3.45-.86,5.44,5.44,0,0,1-2.16-2.51,8.82,8.82,0,0,1-.69-2.89h15.62c0-.06,0-.19,0-.41s0-.42,0-.62a12.2,12.2,0,0,0-1.12-5.44A8.13,8.13,0,0,0,566.53,242.86Zm-9.69,3.65a5.13,5.13,0,0,1,2-1.38,7,7,0,0,1,2.66-.48,5.67,5.67,0,0,1,2.93.74,5.24,5.24,0,0,1,2,2,6.21,6.21,0,0,1,.68,2.51H555.31a8.34,8.34,0,0,1,.28-1.17A5.88,5.88,0,0,1,556.84,246.51Z" fill="#e85d04"/><path d="M587.09,251.49a27.2,27.2,0,0,0-3.15-1.49c-.69-.28-1.36-.59-2-.9A6.05,6.05,0,0,1,580.4,248a1.92,1.92,0,0,1-.61-1.38,1.61,1.61,0,0,1,.78-1.47,3.48,3.48,0,0,1,1.86-.47,5.32,5.32,0,0,1,2.78.73,7,7,0,0,1,2,1.85l2.76-1.77a6.53,6.53,0,0,0-1.68-2,8.67,8.67,0,0,0-2.48-1.38,8.52,8.52,0,0,0-3-.52,8.8,8.8,0,0,0-3.09.56,5.47,5.47,0,0,0-2.41,1.73,5.1,5.1,0,0,0-.05,5.8,7,7,0,0,0,2.2,1.86,27.75,27.75,0,0,0,2.61,1.23c.78.29,1.51.6,2.21.93a5.75,5.75,0,0,1,1.7,1.2,2.46,2.46,0,0,1,.67,1.75,2.23,2.23,0,0,1-.84,1.84,3.65,3.65,0,0,1-2.31.66,5.37,5.37,0,0,1-2.22-.45,5.72,5.72,0,0,1-1.79-1.23,11.7,11.7,0,0,1-1.39-1.68l-2.71,1.68a8.44,8.44,0,0,0,1.66,2.29,8.53,8.53,0,0,0,2.69,1.83,8.65,8.65,0,0,0,3.59.71,7.65,7.65,0,0,0,3.56-.79,6.19,6.19,0,0,0,2.39-2.16,5.62,5.62,0,0,0,.86-3.09,4.7,4.7,0,0,0-.84-2.89A7,7,0,0,0,587.09,251.49Z" fill="#e85d04"/><path d="M619.45,241.63a10.3,10.3,0,0,0-5.22,1.34,9.92,9.92,0,0,0-3.69,3.67,11.16,11.16,0,0,0,0,10.68,9.9,9.9,0,0,0,3.69,3.69,10.29,10.29,0,0,0,5.22,1.33,12.08,12.08,0,0,0,3.95-.66,6.79,6.79,0,0,0,3-1.88v-4.32a5,5,0,0,1-1.47,1.79,8,8,0,0,1-2.44,1.34,8.91,8.91,0,0,1-3,.5,6.56,6.56,0,0,1-3.47-.93,6.73,6.73,0,0,1-2.42-2.52,7.46,7.46,0,0,1-.88-3.67,7.57,7.57,0,0,1,.88-3.69,6.55,6.55,0,0,1,2.42-2.53,6.72,6.72,0,0,1,3.47-.9,8.91,8.91,0,0,1,3,.49,8.39,8.39,0,0,1,2.44,1.32,4.83,4.83,0,0,1,1.47,1.81v-4.31a6.7,6.7,0,0,0-3-1.88A11.84,11.84,0,0,0,619.45,241.63Z" fill="#e85d04"/><path d="M646.44,242.49a7.26,7.26,0,0,0-3.6-.86,6.3,6.3,0,0,0-3.65,1.08,7.37,7.37,0,0,0-2.26,2.53v-17h-3.45v33.66h3.45V249.83a5.23,5.23,0,0,1,.62-2.55,4.7,4.7,0,0,1,1.77-1.77,5.32,5.32,0,0,1,2.66-.64,4.52,4.52,0,0,1,2.35.56,3.49,3.49,0,0,1,1.4,1.66,6.86,6.86,0,0,1,.48,2.74v12.08h3.45V249.4a9.84,9.84,0,0,0-.84-4.32A5.83,5.83,0,0,0,646.44,242.49Z" fill="#e85d04"/><path d="M671,242.86a9.77,9.77,0,0,0-5-1.23,10.16,10.16,0,0,0-4,.76,8.89,8.89,0,0,0-3.11,2.11,9.63,9.63,0,0,0-2,3.26,12.07,12.07,0,0,0-.71,4.23,11.72,11.72,0,0,0,1.19,5.39,9,9,0,0,0,3.32,3.65,9.12,9.12,0,0,0,4.9,1.31,11.45,11.45,0,0,0,5.54-1.27A10.51,10.51,0,0,0,675,257.3l-2.81-1.77a7.31,7.31,0,0,1-2.63,2.69,7.1,7.1,0,0,1-3.58.89,6.59,6.59,0,0,1-3.45-.86,5.44,5.44,0,0,1-2.16-2.51,8.82,8.82,0,0,1-.69-2.89h15.62c0-.06,0-.19,0-.41s0-.42,0-.62a12.2,12.2,0,0,0-1.12-5.44A8.13,8.13,0,0,0,671,242.86Zm-9.69,3.65a5.17,5.17,0,0,1,2-1.38,7,7,0,0,1,2.65-.48,5.67,5.67,0,0,1,2.93.74,5.24,5.24,0,0,1,2,2,6.06,6.06,0,0,1,.68,2.51H659.78a8.34,8.34,0,0,1,.28-1.17A6,6,0,0,1,661.31,246.51Z" fill="#e85d04"/><polygon points="679.87 242.06 679.87 245.3 690.87 245.3 678.57 261.91 696.26 261.91 696.26 258.68 684.83 258.68 697.13 242.06 679.87 242.06" fill="#e85d04"/><polygon points="723.66 256.09 718.05 242.06 714.17 242.06 723.66 263.42 733.16 242.06 729.27 242.06 723.66 256.09" fill="#e85d04"/><path d="M751.26,243a10.88,10.88,0,0,0-10.46,0,9.78,9.78,0,0,0-3.69,3.67,11.16,11.16,0,0,0,0,10.68A9.76,9.76,0,0,0,740.8,261a10.95,10.95,0,0,0,10.46,0,9.92,9.92,0,0,0,3.67-3.69,11.16,11.16,0,0,0,0-10.68A9.94,9.94,0,0,0,751.26,243Zm.65,12.69a6.73,6.73,0,0,1-2.42,2.52,7,7,0,0,1-7,0,6.71,6.71,0,0,1-2.41-2.52,7.47,7.47,0,0,1-.89-3.67,7.57,7.57,0,0,1,.89-3.69,6.52,6.52,0,0,1,2.41-2.53,7.16,7.16,0,0,1,7,0,6.55,6.55,0,0,1,2.42,2.53,7.57,7.57,0,0,1,.88,3.69A7.46,7.46,0,0,1,751.91,255.66Z" fill="#e85d04"/><path d="M775.49,254.15a5.16,5.16,0,0,1-.63,2.58,4.27,4.27,0,0,1-1.77,1.75,5.38,5.38,0,0,1-2.65.63,4.45,4.45,0,0,1-2.33-.58,3.54,3.54,0,0,1-1.42-1.69,6.71,6.71,0,0,1-.48-2.69V242.06h-3.45v12.52a9.44,9.44,0,0,0,.84,4.12,6.37,6.37,0,0,0,2.37,2.7,6.77,6.77,0,0,0,3.61.94,6.56,6.56,0,0,0,3.45-.88,7,7,0,0,0,2.46-2.65v3.1h3.45V242.06h-3.45Z" fill="#e85d04"/><path d="M799.16,253.41a7.09,7.09,0,0,0-2.27-1.92,27.2,27.2,0,0,0-3.15-1.49c-.69-.28-1.35-.59-2-.9A6.12,6.12,0,0,1,790.2,248a1.91,1.91,0,0,1-.6-1.38,1.61,1.61,0,0,1,.78-1.47,3.42,3.42,0,0,1,1.85-.47,5.33,5.33,0,0,1,2.79.73,7,7,0,0,1,2.05,1.85l2.76-1.77a6.71,6.71,0,0,0-1.69-2,8.53,8.53,0,0,0-2.48-1.38,8.45,8.45,0,0,0-3-.52,8.75,8.75,0,0,0-3.08.56,5.56,5.56,0,0,0-2.42,1.73,5.08,5.08,0,0,0,0,5.8,6.85,6.85,0,0,0,2.2,1.86,27.75,27.75,0,0,0,2.61,1.23c.78.29,1.51.6,2.2.93a5.8,5.8,0,0,1,1.71,1.2,2.49,2.49,0,0,1,.66,1.75,2.23,2.23,0,0,1-.84,1.84,3.65,3.65,0,0,1-2.31.66,5.44,5.44,0,0,1-2.22-.45,6,6,0,0,1-1.79-1.23,11,11,0,0,1-1.38-1.68l-2.72,1.68a8.9,8.9,0,0,0,1.66,2.29,8.69,8.69,0,0,0,2.7,1.83,8.6,8.6,0,0,0,3.58.71,7.62,7.62,0,0,0,3.56-.79,6.29,6.29,0,0,0,2.4-2.16,5.7,5.7,0,0,0,.86-3.09A4.7,4.7,0,0,0,799.16,253.41Z" fill="#e85d04"/></svg>