<svg id="Layer_1" data-name="Layer 1" xmlns="http://www.w3.org/2000/svg" viewBox="0 0 200 72"><title>vector</title><path d="M34.71,34.62V15.21c-1.56-.77-3.18-1.51-4.87-2.2a3.39,3.39,0,0,0-2.58,0c-1.69.69-3.31,1.43-4.87,2.2V34.62c2,0,4.08.07,6.13.07S32.65,34.66,34.71,34.62Z" fill="#e85d04"/><path d="M37.86,16.86V34.53q4.24-.15,8.49-.43h0V55.45a.22.22,0,0,1-.21.22h-7v0a1.15,1.15,0,0,0-.77.52,24.79,24.79,0,0,1-2.6,3.29l-2,2.21-.07.08-.17.19c-.77.86-2.31,2.45-4.46,4.6l-.5.51-5.63-5.55a1.68,1.68,0,0,0-1.18-.49h0a1.68,1.68,0,0,0-1.2,2.87c2.66,2.7,6.32,6.35,6.83,6.84l.62.58a.84.84,0,0,0,1.18,0l1.75-1.73,0,0,.51-.51.08-.08C33,67.44,35,65.41,36.05,64.28l2.25-2.46,0,0c.71-.79,1.44-1.63,2.11-2.53.1-.14.21-.28.31-.43h5.4a3.38,3.38,0,0,0,3.35-3.37V33.88l1.77-.15a2.93,2.93,0,0,0,2.39-1.45A2.14,2.14,0,0,0,53.45,30,49,49,0,0,0,37.86,16.86Z" fill="#e85d04"/><path d="M28.55,10.65a1,1,0,0,0,1-1V1.41a1,1,0,1,0-2,0V9.67A1,1,0,0,0,28.55,10.65Z" fill="#e85d04"/><path d="M16,12.77a1,1,0,1,0,1.77-.86L14.14,4.47A1,1,0,0,0,12.83,4a1,1,0,0,0-.46,1.31Z" fill="#e85d04"/><path d="M8.21,20.44a1,1,0,0,0-.15-1.38L1.6,13.91a1,1,0,0,0-1.39.16,1,1,0,0,0,.16,1.38L6.83,20.6A1,1,0,0,0,8.21,20.44Z" fill="#e85d04"/><path d="M56.89,14.07a1,1,0,0,0-1.39-.16L49,19.06a1,1,0,0,0,1.23,1.54l6.46-5.15A1,1,0,0,0,56.89,14.07Z" fill="#e85d04"/><path d="M39.84,13.23a1,1,0,0,0,1.31-.46l3.58-7.45A1,1,0,0,0,44.27,4,1,1,0,0,0,43,4.47l-3.58,7.44A1,1,0,0,0,39.84,13.23Z" fill="#e85d04"/><path d="M20.23,43.72l.32-.34,0,0c.13-.14.27-.27.41-.4l0,0A11.21,11.21,0,0,1,28.3,40h.25a11.17,11.17,0,0,1,5.59,1.49l.06,0a11.31,11.31,0,0,1,5.61,9.74v.37a1.66,1.66,0,0,0,1.64,1.77h.08a1.72,1.72,0,0,0,1.72-1.62c0-.17,0-.34,0-.52a14.76,14.76,0,0,0-7.19-12.64l-.62-.35a14.67,14.67,0,0,0-6.9-1.72h-.31a14.65,14.65,0,0,0-9.5,3.75l0,0c-.21.18-.4.37-.59.55l0,0-.2.2h0l-.7.83-.33.42-.28.37-.1.15,0,0-.1.15v0l-.06.08-.22.35,0,.05c-.08.13-.16.26-.24.41l0,0s0,0,0,0l0,.08,0,0a2.15,2.15,0,0,0-.25.48l-.05.1,0,.07c-.08.15-.15.3-.22.45l0,0L15,45.5a1.77,1.77,0,0,0-.18.45,1.11,1.11,0,0,0-.07.16l0,0-.14.42,0,.12-.06.2a2.69,2.69,0,0,0-.1.32v0c0,.09-.05.18-.07.26v0a2.68,2.68,0,0,0-.07.27L14.2,48v.06c0,.08,0,.15,0,.22a2.93,2.93,0,0,0-.05.29v0l0,.24S14,49,14,49s0,.12,0,.18l0,.09,0,.25v0l0,.24s0,.08,0,.12h0v.47a.22.22,0,0,1,0,.08,1.77,1.77,0,0,1,0,.23v0c0,.08,0,.17,0,.25v.72h0v.07h0v0l0,.49v.16s0,.1,0,.13a.45.45,0,0,0,0,.11h0s0,.08,0,.12,0,.06,0,.1S14,53,14,53l0,.24s0,0,0,.06a12.35,12.35,0,0,0,.57,2.13,2,2,0,0,0,.08.22H11a.22.22,0,0,1-.22-.22V34.1q4.23.28,8.49.43V16.86A49.19,49.19,0,0,0,3.64,30a2.14,2.14,0,0,0-.2,2.31,2.91,2.91,0,0,0,2.39,1.45l1.77.15V55.43A3.38,3.38,0,0,0,11,58.8l8,0a.8.8,0,0,0,.65-1.28,11.36,11.36,0,0,1-2.23-4.82v0l-.07-.57V52l0-.34h0V51a.81.81,0,0,1,0-.16v-.46c0-.06,0-.13,0-.17h0a.28.28,0,0,1,0-.09,1.11,1.11,0,0,1,0-.19v-.05a.78.78,0,0,0,0-.16l.05-.28a1.13,1.13,0,0,1,0-.18l0-.14v0h0l0-.09c0-.06,0-.12,0-.21v0a.94.94,0,0,1,0-.16s0-.08,0-.11a1.31,1.31,0,0,0,.05-.15,1.8,1.8,0,0,1,.05-.19l0-.11s0,0,0,0l0-.06.06-.19,0-.12.09-.24,0-.09a1.11,1.11,0,0,1,.07-.16v0l0-.09.05-.11.12-.27.12-.26.12-.25,0-.09,0-.07.1-.19.05-.08c.05-.08.09-.17.14-.24l.05-.09a1.64,1.64,0,0,0,.14-.22l.1-.09.07-.15,0-.06.08-.12.18-.24.2-.25.07-.09.06-.08L20,44l.14-.15Z" fill="#e85d04"/><circle cx="28.55" cy="51.28" r="6.92" fill="#e85d04"/><polygon points="70.31 24.09 70.31 19.66 64.97 19.66 64.97 27.09 70.31 24.09"/><polygon points="64.97 30.6 64.97 54.24 70.31 54.24 70.31 27.6 64.97 30.6"/><path d="M97.3,29.72H90.7L80.48,40.77V19.66H75.29V54.24h5.19V43.18L90.7,54.24h6.6L86,42Z"/><path d="M112.28,28.83a12.71,12.71,0,1,0,0,25.41h4.35V49.11h-4.3a7.73,7.73,0,0,1-7.59-7.71,7.55,7.55,0,0,1,15.09.11V54.24H125V41.61A12.65,12.65,0,0,0,112.28,28.83Z"/><path d="M134.08,36.06c0-1.21,1.42-2.25,3.93-2.25a8.65,8.65,0,0,1,6.29,2.77l3.82-3.46a13.7,13.7,0,0,0-10-4.29c-4.61,0-9.27,2.41-9.27,7.54,0,8.39,14.67,7,14.67,11,0,1.36-1.68,2.77-4.61,2.77a9.5,9.5,0,0,1-7-3.3l-3.82,3.46A14.92,14.92,0,0,0,139,55.13c4.82,0,9.74-2.67,9.74-8C148.75,38.52,134.08,40,134.08,36.06Z"/><path d="M156.82,36.06c0-1.21,1.42-2.25,3.93-2.25A8.64,8.64,0,0,1,167,36.58l3.83-3.46a13.74,13.74,0,0,0-10-4.29c-4.61,0-9.28,2.41-9.28,7.54,0,8.39,14.68,7,14.68,11,0,1.36-1.68,2.77-4.61,2.77a9.5,9.5,0,0,1-7-3.3l-3.82,3.46a14.92,14.92,0,0,0,10.9,4.82c4.82,0,9.74-2.67,9.74-8C171.49,38.52,156.82,40,156.82,36.06Z"/><path d="M186.8,28.83A13.15,13.15,0,1,0,200,42,13,13,0,0,0,186.8,28.83Zm0,21.27a8.15,8.15,0,1,1,8-8.12A8.06,8.06,0,0,1,186.8,50.1Z"/><polygon points="65.6 58.3 65.1 58.3 65.1 65.85 65.6 65.85 66.01 65.85 69.41 65.85 69.41 64.99 66.01 64.99 66.01 62.19 69.19 62.19 69.19 61.32 66.01 61.32 66.01 59.16 69.41 59.16 69.41 58.3 66.01 58.3 65.6 58.3" fill="#e85d04"/><path d="M74.65,61a1.66,1.66,0,0,0-2.38.65v-.78h-.86v5h.86v-3a1.22,1.22,0,0,1,.16-.64,1,1,0,0,1,.44-.44,1.29,1.29,0,0,1,.66-.16,1.13,1.13,0,0,1,.58.14.88.88,0,0,1,.36.42,1.69,1.69,0,0,1,.12.68v3h.86V62.72a2.34,2.34,0,0,0-.21-1A1.54,1.54,0,0,0,74.65,61Z" fill="#e85d04"/><polygon points="78.42 59.16 77.56 59.16 77.56 60.89 76.75 60.89 76.75 61.7 77.56 61.7 77.56 65.85 78.42 65.85 78.42 61.7 79.23 61.7 79.23 60.89 78.42 60.89 78.42 59.16" fill="#e85d04"/><path d="M82.43,60.78a1.09,1.09,0,0,0-.68.27,1.48,1.48,0,0,0-.36.42v-.58h-.87v5h.87v-3a2.43,2.43,0,0,1,.07-.63.83.83,0,0,1,.25-.45.78.78,0,0,1,.51-.16.88.88,0,0,1,.35.06,1.4,1.4,0,0,1,.32.19l.47-.71a1,1,0,0,0-.43-.28A2,2,0,0,0,82.43,60.78Z" fill="#e85d04"/><path d="M87.78,61.09a2.5,2.5,0,0,0-1.26-.31,2.66,2.66,0,0,0-1,.19,2.35,2.35,0,0,0-.78.53,2.4,2.4,0,0,0-.5.81,3,3,0,0,0-.18,1.06,2.92,2.92,0,0,0,.3,1.35,2.22,2.22,0,0,0,.83.91,2.25,2.25,0,0,0,1.22.33,2.91,2.91,0,0,0,1.39-.32,2.59,2.59,0,0,0,1-.94l-.71-.44a1.9,1.9,0,0,1-.65.67,1.77,1.77,0,0,1-.9.22,1.64,1.64,0,0,1-.86-.21,1.39,1.39,0,0,1-.54-.63,2.24,2.24,0,0,1-.17-.72h3.9a.46.46,0,0,1,0-.1v-.16A3,3,0,0,0,88.58,62,2.07,2.07,0,0,0,87.78,61.09ZM85.36,62a1.27,1.27,0,0,1,.5-.34,1.73,1.73,0,0,1,.66-.12,1.41,1.41,0,0,1,.73.18,1.29,1.29,0,0,1,.5.51,1.72,1.72,0,0,1,.17.62H85a2.46,2.46,0,0,1,.07-.29A1.47,1.47,0,0,1,85.36,62Z" fill="#e85d04"/><polygon points="89.99 60.89 89.99 61.7 92.75 61.7 89.67 65.85 94.09 65.85 94.09 65.04 91.23 65.04 94.31 60.89 89.99 60.89" fill="#e85d04"/><polygon points="95.87 67.46 96.5 67.69 97.69 64.99 96.82 64.67 95.87 67.46" fill="#e85d04"/><polygon points="105.02 64.4 103.62 60.89 102.65 60.89 105.02 66.23 107.39 60.89 106.42 60.89 105.02 64.4" fill="#e85d04"/><path d="M111.92,61.12a2.48,2.48,0,0,0-1.31-.34,2.54,2.54,0,0,0-1.31.34,2.59,2.59,0,0,0-.92.91,2.69,2.69,0,0,0-.34,1.34,2.66,2.66,0,0,0,.34,1.33,2.56,2.56,0,0,0,.92.93,2.63,2.63,0,0,0,1.31.33,2.58,2.58,0,0,0,1.31-.33,2.49,2.49,0,0,0,.92-.93,2.66,2.66,0,0,0,.34-1.33,2.69,2.69,0,0,0-.34-1.34A2.51,2.51,0,0,0,111.92,61.12Zm.16,3.17a1.58,1.58,0,0,1-.6.63,1.76,1.76,0,0,1-1.74,0,1.58,1.58,0,0,1-.6-.63,1.84,1.84,0,0,1-.22-.92,1.87,1.87,0,0,1,.22-.92,1.58,1.58,0,0,1,.6-.63,1.76,1.76,0,0,1,1.74,0,1.58,1.58,0,0,1,.6.63,1.87,1.87,0,0,1,.22.92A1.84,1.84,0,0,1,112.08,64.29Z" fill="#e85d04"/><path d="M118,63.91a1.25,1.25,0,0,1-.16.65,1.1,1.1,0,0,1-.44.44,1.4,1.4,0,0,1-.66.15,1.2,1.2,0,0,1-.59-.14,1,1,0,0,1-.35-.42,1.72,1.72,0,0,1-.12-.68v-3h-.86V64a2.37,2.37,0,0,0,.21,1,1.49,1.49,0,0,0,.59.67,1.66,1.66,0,0,0,.9.24,1.6,1.6,0,0,0,.86-.22,1.8,1.8,0,0,0,.62-.66v.77h.86v-5H118Z" fill="#e85d04"/><path d="M123.33,63.25a5.25,5.25,0,0,0-.79-.37l-.49-.23a1.49,1.49,0,0,1-.39-.27.49.49,0,0,1-.15-.35.39.39,0,0,1,.19-.36.85.85,0,0,1,.46-.12,1.35,1.35,0,0,1,.7.18,1.54,1.54,0,0,1,.51.47l.69-.45a1.62,1.62,0,0,0-.42-.49,2.08,2.08,0,0,0-.62-.35,2.21,2.21,0,0,0-1.52,0,1.41,1.41,0,0,0-.6.43,1.25,1.25,0,0,0,0,1.46,1.65,1.65,0,0,0,.55.46,6.39,6.39,0,0,0,.65.31l.55.23a1.5,1.5,0,0,1,.43.3.63.63,0,0,1,.16.44A.57.57,0,0,1,123,65a.91.91,0,0,1-.58.16,1.26,1.26,0,0,1-.55-.11,1.57,1.57,0,0,1-.45-.31,2.72,2.72,0,0,1-.34-.42l-.68.42a2,2,0,0,0,.41.57,2.2,2.2,0,0,0,.68.46,2.11,2.11,0,0,0,.89.18,1.92,1.92,0,0,0,.89-.2,1.43,1.43,0,0,0,.6-.54,1.42,1.42,0,0,0,.22-.77,1.18,1.18,0,0,0-.21-.72A1.7,1.7,0,0,0,123.33,63.25Z" fill="#e85d04"/><path d="M132.6,61.1a2.4,2.4,0,0,0-1.23-.32,2.53,2.53,0,0,0-1.15.26,2.34,2.34,0,0,0-.84.72,2.73,2.73,0,0,0-.43,1.08,2.6,2.6,0,0,0,0,.26,2.44,2.44,0,0,0,0,.27,2.86,2.86,0,0,0,.3,1.33,2.39,2.39,0,0,0,.85.93,2.21,2.21,0,0,0,1.2.33,3.08,3.08,0,0,0,1.08-.16,2.07,2.07,0,0,0,.73-.44,3.57,3.57,0,0,0,.55-.66l-.7-.44a2.22,2.22,0,0,1-.39.47,1.67,1.67,0,0,1-1.16.42,1.75,1.75,0,0,1-.85-.2,1.42,1.42,0,0,1-.55-.61,2.07,2.07,0,0,1-.18-.75h3.91c0-.05,0-.09,0-.13v-.13a3,3,0,0,0-.29-1.36A2.15,2.15,0,0,0,132.6,61.1Zm-2.79,1.75a1.57,1.57,0,0,1,.2-.61,1.43,1.43,0,0,1,.57-.52,1.73,1.73,0,0,1,.79-.18,1.35,1.35,0,0,1,.72.17,1.16,1.16,0,0,1,.47.46,1.87,1.87,0,0,1,.21.68Z" fill="#e85d04"/><polygon points="131.37 59.11 132.55 60.14 133.09 59.7 131.37 58.19 129.64 59.7 130.18 60.14 131.37 59.11" fill="#e85d04"/><polygon points="136.24 59.16 135.38 59.16 135.38 60.89 134.57 60.89 134.57 61.7 135.38 61.7 135.38 65.85 136.24 65.85 136.24 61.7 137.05 61.7 137.05 60.89 136.24 60.89 136.24 59.16" fill="#e85d04"/><path d="M141.63,61.09a2.5,2.5,0,0,0-1.26-.31,2.7,2.7,0,0,0-1,.19,2.35,2.35,0,0,0-.78.53,2.57,2.57,0,0,0-.5.81,3,3,0,0,0-.18,1.06,2.92,2.92,0,0,0,.3,1.35,2.29,2.29,0,0,0,.83.91,2.31,2.31,0,0,0,1.23.33,2.87,2.87,0,0,0,1.38-.32,2.59,2.59,0,0,0,1-.94l-.7-.44a1.84,1.84,0,0,1-.66.67,1.77,1.77,0,0,1-.9.22,1.69,1.69,0,0,1-.86-.21,1.39,1.39,0,0,1-.54-.63,2.24,2.24,0,0,1-.17-.72h3.9s0-.05,0-.1,0-.11,0-.16a3,3,0,0,0-.29-1.36A2,2,0,0,0,141.63,61.09Zm-2.42.91a1.35,1.35,0,0,1,.5-.34,1.76,1.76,0,0,1,.66-.12,1.47,1.47,0,0,1,.74.18,1.27,1.27,0,0,1,.49.51,1.54,1.54,0,0,1,.17.62h-2.94a1.37,1.37,0,0,1,.07-.29A1.45,1.45,0,0,1,139.21,62Z" fill="#e85d04"/><path d="M146.77,63.25a5.25,5.25,0,0,0-.79-.37l-.49-.23a1.49,1.49,0,0,1-.39-.27A.49.49,0,0,1,145,62a.39.39,0,0,1,.19-.36.89.89,0,0,1,.47-.12,1.31,1.31,0,0,1,.69.18,1.54,1.54,0,0,1,.51.47l.7-.45a1.81,1.81,0,0,0-.43-.49,2.08,2.08,0,0,0-.62-.35,2.21,2.21,0,0,0-1.52,0,1.47,1.47,0,0,0-.6.43,1.3,1.3,0,0,0,0,1.46,1.76,1.76,0,0,0,.55.46c.22.12.44.22.65.31a5.69,5.69,0,0,1,.55.23,1.38,1.38,0,0,1,.43.3.63.63,0,0,1,.16.44.57.57,0,0,1-.21.46.9.9,0,0,1-.57.16,1.3,1.3,0,0,1-.56-.11,1.57,1.57,0,0,1-.45-.31,2.72,2.72,0,0,1-.34-.42l-.68.42a2,2,0,0,0,.41.57,2.2,2.2,0,0,0,.68.46,2.11,2.11,0,0,0,.89.18,1.92,1.92,0,0,0,.89-.2,1.43,1.43,0,0,0,.6-.54,1.34,1.34,0,0,0,.22-.77,1.18,1.18,0,0,0-.21-.72A1.7,1.7,0,0,0,146.77,63.25Z" fill="#e85d04"/><path d="M154.86,60.78a2.5,2.5,0,0,0-1.3.34,2.44,2.44,0,0,0-.92.91,2.59,2.59,0,0,0-.34,1.34,2.56,2.56,0,0,0,.34,1.33,2.42,2.42,0,0,0,.92.93,2.59,2.59,0,0,0,1.3.33,2.79,2.79,0,0,0,1-.17,1.58,1.58,0,0,0,.74-.47V64.25a1.34,1.34,0,0,1-.37.44,1.89,1.89,0,0,1-.61.34,2.27,2.27,0,0,1-.75.12,1.71,1.71,0,0,1-.87-.23,1.65,1.65,0,0,1-.6-.63,1.84,1.84,0,0,1-.22-.92,1.87,1.87,0,0,1,.22-.92,1.65,1.65,0,0,1,.6-.63,1.71,1.71,0,0,1,.87-.23,2,2,0,0,1,.75.13,1.88,1.88,0,0,1,.61.33,1.12,1.12,0,0,1,.37.45V61.42a1.66,1.66,0,0,0-.74-.47A3,3,0,0,0,154.86,60.78Z" fill="#e85d04"/><path d="M161.61,61a1.72,1.72,0,0,0-.9-.22,1.55,1.55,0,0,0-.91.27,1.86,1.86,0,0,0-.57.64V57.44h-.86v8.41h.86v-3a1.21,1.21,0,0,1,.16-.63,1.12,1.12,0,0,1,.44-.45,1.4,1.4,0,0,1,.66-.16,1.14,1.14,0,0,1,.59.14.86.86,0,0,1,.35.42,1.69,1.69,0,0,1,.12.68v3h.86V62.72a2.4,2.4,0,0,0-.21-1.07A1.39,1.39,0,0,0,161.61,61Z" fill="#e85d04"/><path d="M167.75,61.09a2.5,2.5,0,0,0-1.26-.31,2.7,2.7,0,0,0-1,.19,2.35,2.35,0,0,0-.78.53,2.57,2.57,0,0,0-.5.81,3,3,0,0,0-.18,1.06,2.92,2.92,0,0,0,.3,1.35,2.22,2.22,0,0,0,.83.91,2.28,2.28,0,0,0,1.22.33,2.88,2.88,0,0,0,1.39-.32,2.59,2.59,0,0,0,1-.94l-.7-.44a1.84,1.84,0,0,1-.66.67,1.77,1.77,0,0,1-.9.22,1.66,1.66,0,0,1-.86-.21,1.39,1.39,0,0,1-.54-.63,2.24,2.24,0,0,1-.17-.72h3.9a.46.46,0,0,1,0-.1v-.16a3,3,0,0,0-.28-1.36A2,2,0,0,0,167.75,61.09Zm-2.42.91a1.27,1.27,0,0,1,.5-.34,1.76,1.76,0,0,1,.66-.12,1.47,1.47,0,0,1,.74.18,1.34,1.34,0,0,1,.49.51,1.54,1.54,0,0,1,.17.62H165a1.36,1.36,0,0,1,.06-.29A1.61,1.61,0,0,1,165.33,62Z" fill="#e85d04"/><polygon points="169.97 60.89 169.97 61.7 172.72 61.7 169.64 65.85 174.07 65.85 174.07 65.04 171.21 65.04 174.28 60.89 169.97 60.89" fill="#e85d04"/><polygon points="180.92 64.4 179.51 60.89 178.54 60.89 180.92 66.23 183.29 60.89 182.32 60.89 180.92 64.4" fill="#e85d04"/><path d="M187.81,61.12a2.67,2.67,0,0,0-2.61,0,2.44,2.44,0,0,0-.92.91,2.59,2.59,0,0,0-.34,1.34,2.56,2.56,0,0,0,.34,1.33,2.42,2.42,0,0,0,.92.93,2.75,2.75,0,0,0,2.61,0,2.42,2.42,0,0,0,.92-.93,2.56,2.56,0,0,0,.34-1.33,2.59,2.59,0,0,0-.34-1.34A2.44,2.44,0,0,0,187.81,61.12Zm.17,3.17a1.61,1.61,0,0,1-.61.63,1.74,1.74,0,0,1-1.73,0,1.61,1.61,0,0,1-.61-.63,1.84,1.84,0,0,1-.22-.92,1.87,1.87,0,0,1,.22-.92,1.61,1.61,0,0,1,.61-.63,1.74,1.74,0,0,1,1.73,0,1.61,1.61,0,0,1,.61.63,2,2,0,0,1,.22.92A2,2,0,0,1,188,64.29Z" fill="#e85d04"/><path d="M193.87,63.91a1.36,1.36,0,0,1-.15.65,1.19,1.19,0,0,1-.45.44,1.4,1.4,0,0,1-.66.15A1.16,1.16,0,0,1,192,65a.93.93,0,0,1-.36-.42,1.72,1.72,0,0,1-.12-.68v-3h-.86V64a2.37,2.37,0,0,0,.21,1,1.55,1.55,0,0,0,.59.67,1.68,1.68,0,0,0,.9.24,1.63,1.63,0,0,0,.87-.22,1.78,1.78,0,0,0,.61-.66v.77h.87v-5h-.87Z" fill="#e85d04"/><path d="M199.79,63.73a1.7,1.7,0,0,0-.57-.48,5.12,5.12,0,0,0-.78-.37l-.5-.23a1.49,1.49,0,0,1-.39-.27.49.49,0,0,1-.15-.35.39.39,0,0,1,.19-.36.89.89,0,0,1,.47-.12,1.31,1.31,0,0,1,.69.18,1.67,1.67,0,0,1,.52.47l.69-.45a1.62,1.62,0,0,0-.42-.49,2.21,2.21,0,0,0-.62-.35,2.36,2.36,0,0,0-.75-.13,2.29,2.29,0,0,0-.78.14,1.54,1.54,0,0,0-.6.43,1.19,1.19,0,0,0-.23.74,1.12,1.12,0,0,0,.22.72,1.76,1.76,0,0,0,.55.46c.22.12.44.22.65.31a5.69,5.69,0,0,1,.55.23,1.27,1.27,0,0,1,.43.3.64.64,0,0,1,.17.44.57.57,0,0,1-.21.46.93.93,0,0,1-.58.16,1.3,1.3,0,0,1-.56-.11,1.4,1.4,0,0,1-.44-.31,2.79,2.79,0,0,1-.35-.42l-.68.42a1.82,1.82,0,0,0,.42.57,2,2,0,0,0,.67.46,2.16,2.16,0,0,0,.9.18,2,2,0,0,0,.89-.2,1.47,1.47,0,0,0,.59-.54,1.34,1.34,0,0,0,.22-.77A1.18,1.18,0,0,0,199.79,63.73Z" fill="#e85d04"/></svg>