<svg xmlns="http://www.w3.org/2000/svg" viewBox="0 0 400 120" fill="none">
  <!-- Logo icône -->
  <g transform="translate(10, 10) scale(1)">
    <rect width="100" height="100" rx="20" fill="#E85D04"/>
    
    <g transform="translate(11, 16) scale(0.78)">
      <path
        d="M20 75 L20 45 L35 30 L50 45 L65 30 L80 45 L80 75 L20 75 Z"
        stroke="#FFFFFF"
        stroke-width="3.5"
        fill="none"
        stroke-linecap="round"
        stroke-linejoin="round"
      />
      <path
        d="M15 45 L35 25 L50 40 L65 25 L85 45"
        stroke="#FFFFFF"
        stroke-width="3.5"
        fill="none"
        stroke-linecap="round"
        stroke-linejoin="round"
      />
      <path
        d="M50 45 L50 35 L60 25 L70 35 L70 45"
        stroke="#FFFFFF"
        stroke-width="3.5"
        fill="none"
        stroke-linecap="round"
        stroke-linejoin="round"
      />
      <rect x="40" y="55" width="20" height="20" stroke="#FFFFFF" stroke-width="3" fill="none" rx="2"/>
      <rect x="25" y="50" width="10" height="8" stroke="#FFFFFF" stroke-width="2.5" fill="none" rx="1"/>
      <rect x="65" y="50" width="10" height="8" stroke="#FFFFFF" stroke-width="2.5" fill="none" rx="1"/>
      <rect x="45" y="60" width="10" height="6" stroke="#FFFFFF" stroke-width="2" fill="none" rx="1"/>
      <line x1="47.5" y1="60" x2="47.5" y2="66" stroke="#FFFFFF" stroke-width="1.5"/>
      <line x1="52.5" y1="60" x2="52.5" y2="66" stroke="#FFFFFF" stroke-width="1.5"/>
      <circle cx="75" cy="20" r="5" stroke="#FFFFFF" stroke-width="2.5" fill="none"/>
      <circle cx="25" cy="35" r="4" stroke="#FFFFFF" stroke-width="2.5" fill="none"/>
    </g>
  </g>
  
  <!-- Texte IKASSO -->
  <text x="125" y="70" font-family="Arial Black, Arial, sans-serif" font-size="48" font-weight="900" fill="#E85D04">
    IKASSO
  </text>
  
  <!-- Slogan -->
  <text x="125" y="95" font-family="Arial, sans-serif" font-size="12" font-weight="500" fill="#666666" letter-spacing="1">
    ENTREZ, VOUS ÊTES CHEZ VOUS
  </text>
</svg>

